<svg width="403" height="403" viewBox="0 0 403 403" fill="none" xmlns="http://www.w3.org/2000/svg">
<path d="M347.021 264.185C347.021 264.185 371.044 267.113 375.766 282.856C379.009 293.623 377.592 313.805 378.379 323.502C378.789 328.445 376.805 333.231 373.059 336.442C356.939 350.201 300.393 375.734 203.074 375.734C105.725 375.734 46.6286 350.201 30.5086 336.442C28.659 334.862 27.2118 332.864 26.2866 330.614C25.3614 328.364 24.9847 325.926 25.1878 323.502C25.9749 313.805 24.5896 293.623 27.801 282.856C32.5236 267.113 56.5462 264.185 56.5462 264.185" fill="#855C52"/>
<path d="M352.499 270.514C353.066 269.853 353.349 269.065 353.412 268.215C354.073 254.929 355.175 131.447 201.721 131.447C48.0768 131.447 49.4936 255.212 50.1862 268.247C50.2177 269.065 50.5011 269.821 51.0363 270.482C56.2942 276.968 90.2659 312.734 200.965 312.734C311.507 312.734 346.926 277.062 352.499 270.514Z" fill="#FBC21A"/>
<path d="M92.4381 242.115C92.3122 242.115 92.564 242.146 92.4381 242.115C88.0303 241.013 85.6689 236.322 85.6689 229.804C85.6689 214.723 91.525 202.004 97.4441 194.101C108.212 179.713 126.032 177.037 127.165 176.974C132.801 176.564 139.381 176.564 141.018 181.917C142.026 185.222 139.917 188.875 133.21 192.401C127.449 195.392 121.593 201.185 118.35 205.026C113.281 211.008 108.778 219.918 106.858 230.812C105.567 237.959 97.57 243.406 92.4381 242.115Z" fill="white"/>
<path d="M38.4108 301.337C53.0825 312.356 108.212 337.103 200.24 336.348C292.269 337.103 350.421 312.356 365.124 301.337C373.436 295.103 375.514 287.736 375.797 282.446C372.303 271.395 360.653 266.767 353.443 265.004C353.443 265.508 353.443 265.98 353.412 266.421C353.349 268.373 352.53 270.199 351.082 271.458C342.172 279.266 302.88 305.902 198.981 305.902C77.231 305.902 50.2174 268.939 50.2174 268.939C50.2174 268.939 50.0915 267.68 50.06 265.445C42.5037 267.743 30.1619 272.182 27.832 283.076V283.107C28.2098 288.334 30.4452 295.386 38.4108 301.337Z" fill="#B79178"/>
<path d="M60.6074 97.6016L97.2237 134.186L116.618 121.089L95.7755 72.9493L60.6074 97.6016Z" fill="#F79329"/>
<path d="M279.015 61.0167L269.979 110.195L289.373 118.602L313.962 75.0902L279.015 61.0167Z" fill="#F79329"/>
<path d="M311.003 126.441L336.883 85.0078L363.897 106.008L328.697 141.302L311.003 126.441Z" fill="#F79329"/>
<path d="M218.187 141.396C215.196 142.876 209.781 145.08 202.697 145.332C194.196 145.615 187.71 142.939 184.625 141.396V118.696H218.187V141.396Z" fill="#FBC21A"/>
<path d="M201.406 73.9883C179.839 73.9883 162.396 81.1037 162.396 89.8879V105.41C162.396 114.194 179.87 121.309 201.406 121.309C222.941 121.309 240.415 114.194 240.415 105.41V89.8879C240.415 81.1037 222.941 73.9883 201.406 73.9883Z" fill="#FBC21A"/>
</svg>
