<svg width="347" height="390" viewBox="0 0 347 390" fill="none" xmlns="http://www.w3.org/2000/svg">
<path d="M1 364.522H345.802" stroke="#C4D8E2" stroke-linecap="round" stroke-linejoin="round"/>
<path d="M210.325 186.245V56.7885H218.34" stroke="#C4D8E2" stroke-linecap="round" stroke-linejoin="round"/>
<path d="M210.324 201.652V198.22" stroke="#C4D8E2" stroke-linecap="round" stroke-linejoin="round"/>
<path d="M238.954 56.7885H321.666V213.722H210.325" stroke="#C4D8E2" stroke-linecap="round" stroke-linejoin="round"/>
<path d="M228.818 56.7887H236.086" stroke="#C4D8E2" stroke-linecap="round" stroke-linejoin="round"/>
<path d="M317.479 60.9674H214.513V209.543H317.479V60.9674Z" stroke="#C4D8E2" stroke-linecap="round" stroke-linejoin="round"/>
<path d="M312.69 68.9213V130.623H219.297V126.594" stroke="#C4D8E2" stroke-linecap="round" stroke-linejoin="round"/>
<path d="M219.297 117.162V65.3494H312.69" stroke="#C4D8E2" stroke-linecap="round" stroke-linejoin="round"/>
<path d="M219.297 123.505V119.59" stroke="#C4D8E2" stroke-linecap="round" stroke-linejoin="round"/>
<path d="M296.917 135.251H317.479" stroke="#C4D8E2" stroke-linecap="round" stroke-linejoin="round"/>
<path d="M289.604 135.251H292.517" stroke="#C4D8E2" stroke-linecap="round" stroke-linejoin="round"/>
<path d="M214.513 135.251H286.139" stroke="#C4D8E2" stroke-linecap="round" stroke-linejoin="round"/>
<path d="M260.817 130.623V128.494H269.431V129.699H266V130.623" stroke="#C4D8E2" stroke-linecap="round" stroke-linejoin="round"/>
<path d="M214.687 190.82C214.687 190.82 216.121 191.903 217.124 198.449C217.124 198.449 218.884 187.996 220.943 187.838C223.001 187.68 222.614 194.63 222.614 194.63C222.614 194.63 222.966 191.208 224.603 191.366C226.239 191.524 224.603 198.405 224.603 198.405C224.603 198.405 226.573 193.002 228.439 193.126C230.304 193.249 227.207 202.909 227.207 202.909C227.207 202.909 231.993 199.443 233.929 201.15C235.864 202.856 232.855 207.115 232.855 207.115C232.855 207.115 239.718 205.628 240.774 209.657" stroke="#C4D8E2" stroke-linecap="round" stroke-linejoin="round"/>
<path d="M240.784 205.777C240.784 205.777 243.776 203.815 246.134 204.73C246.134 204.73 244.638 202.452 246.134 201.061C247.629 199.671 249.547 204.73 249.547 204.73C249.547 204.73 249.767 196.24 252.759 196.671C255.75 197.102 252.759 204.73 252.759 204.73C252.759 204.73 258.099 199.997 259.384 201.642C260.668 203.287 258.504 205.777 258.504 205.777C259.469 205.503 260.49 205.485 261.464 205.724C262.439 205.963 263.335 206.451 264.064 207.141C264.064 207.141 267.645 203.49 271.622 202.962C271.622 202.962 268.982 195.281 270.258 193.733C271.534 192.184 273.874 200.437 273.874 200.437C273.874 200.437 274.895 195.07 278.273 194.648C278.273 194.648 275.484 193.134 276.311 190.838C277.138 188.542 280.983 191.383 280.983 191.383C280.983 191.383 279.399 187.345 281.907 186.236C284.414 185.128 285.426 189.615 285.426 189.615C285.426 189.615 286.13 184.917 289.069 185.216C292.007 185.515 291.057 190.882 291.057 190.882C291.057 190.882 293.829 186.588 295.315 187.019C298.28 187.899 297.383 194.692 297.383 194.692C297.383 194.692 301.518 191.814 302.592 193.143C303.665 194.472 298.28 198.255 298.28 198.255C298.28 198.255 302.389 198.703 304.949 201.105" stroke="#C4D8E2" stroke-linecap="round" stroke-linejoin="round"/>
<path d="M317.478 192.404C317.478 192.404 317.003 188.093 312.692 187.864C308.381 187.636 313.879 197.323 313.879 197.323C313.879 197.323 310.316 194.375 309.04 195.281C307.765 196.188 312.692 201.185 312.692 201.185C312.692 201.185 310.325 198.994 307.835 199.672C305.345 200.349 309.252 207.291 309.252 207.291C305.568 206.553 301.745 207.003 298.333 208.575" stroke="#C4D8E2" stroke-linecap="round" stroke-linejoin="round"/>
<path d="M170.487 326.004V364.293" stroke="#C4D8E2" stroke-linecap="round" stroke-linejoin="round"/>
<path d="M170.487 313.475V321.675" stroke="#C4D8E2" stroke-linecap="round" stroke-linejoin="round"/>
<path d="M9.30225 364.523V293.169H170.485V308.83" stroke="#C4D8E2" stroke-linecap="round" stroke-linejoin="round"/>
<path d="M32.787 300.973H18.7979V357.976" stroke="#C4D8E2" stroke-linecap="round" stroke-linejoin="round"/>
<path d="M160.992 364.293V300.973H40.9053" stroke="#C4D8E2" stroke-linecap="round" stroke-linejoin="round"/>
<path d="M154.289 285.778H149.846" stroke="#C4D8E2" stroke-linecap="round" stroke-linejoin="round"/>
<path d="M143.467 285.778H5.30029V293.116H174.49V285.778H157.122" stroke="#C4D8E2" stroke-linecap="round" stroke-linejoin="round"/>
<path d="M14.8286 238.761C14.8286 238.761 28.0259 239.808 28.6242 249.574C28.6242 249.574 15.2069 255.75 14.8286 238.761Z" stroke="#C4D8E2" stroke-linecap="round" stroke-linejoin="round"/>
<path d="M41.0215 241.19C41.0215 241.19 48.4208 231.186 60.3775 236.315C60.3775 236.315 53.075 248.404 41.0215 241.19Z" stroke="#C4D8E2" stroke-linecap="round" stroke-linejoin="round"/>
<path d="M59.3646 209.604C59.3646 209.604 61.4938 228.845 43.9766 223.549C43.9766 223.549 49.537 209.401 59.3646 209.604Z" stroke="#C4D8E2" stroke-linecap="round" stroke-linejoin="round"/>
<path d="M37.8524 198.887C37.8524 198.887 51.7096 206.366 41.5213 217.698C41.5213 217.698 31.8081 209.603 37.8524 198.887Z" stroke="#C4D8E2" stroke-linecap="round" stroke-linejoin="round"/>
<path d="M20.8115 216.088C20.8115 216.088 35.8741 214.575 35.8741 228.511C35.8741 228.511 20.8115 229.11 20.8115 216.088Z" stroke="#C4D8E2" stroke-linecap="round" stroke-linejoin="round"/>
<path d="M32.1008 257.449C31.8808 252.768 31.8808 246.75 34.7402 240.389C41.3301 225.714 43.5384 213.352 40.1159 204.642" stroke="#C4D8E2" stroke-linecap="round" stroke-linejoin="round"/>
<path d="M25.7549 219.853C25.7549 219.853 34.7818 223.443 37.8524 232.742" stroke="#C4D8E2" stroke-linecap="round" stroke-linejoin="round"/>
<path d="M54.6245 217.302C54.6245 217.302 49.4072 224.411 40.5474 223.645" stroke="#C4D8E2" stroke-linecap="round" stroke-linejoin="round"/>
<path d="M54.6236 238.329C54.6236 238.329 40.1681 242.491 34.3877 241.127" stroke="#C4D8E2" stroke-linecap="round" stroke-linejoin="round"/>
<path d="M19.1411 243.16C19.1411 243.16 25.6078 250.252 32.1009 250.137" stroke="#C4D8E2" stroke-linecap="round" stroke-linejoin="round"/>
<path d="M49.2834 257.448H17.8826C17.6796 257.448 17.4849 257.528 17.3414 257.672C17.1978 257.815 17.1172 258.01 17.1172 258.213V260.597C17.1172 260.698 17.137 260.797 17.1756 260.889C17.2142 260.981 17.2707 261.065 17.3419 261.136C17.4131 261.206 17.4976 261.262 17.5904 261.299C17.6832 261.337 17.7825 261.355 17.8826 261.354H18.7624L21.5603 285.778H45.5618L48.3596 261.354H49.2834C49.3831 261.355 49.482 261.337 49.5744 261.299C49.6667 261.261 49.7506 261.206 49.8211 261.135C49.8916 261.065 49.9473 260.981 49.9849 260.888C50.0225 260.796 50.0413 260.697 50.0401 260.597V258.213C50.0412 258.113 50.0225 258.014 49.985 257.921C49.9475 257.828 49.892 257.744 49.8216 257.672C49.7512 257.601 49.6674 257.545 49.575 257.506C49.4827 257.468 49.3835 257.448 49.2834 257.448V257.448Z" stroke="#C4D8E2" stroke-miterlimit="10"/>
<path d="M20.8115 261.354H39.0766" stroke="#C4D8E2" stroke-linecap="round" stroke-linejoin="round"/>
<path d="M42.5181 261.354H45.2631" stroke="#C4D8E2" stroke-linecap="round" stroke-linejoin="round"/>
<path d="M242.649 160.105L239.13 179.232L210.43 196.67L214.398 203.955C214.398 203.955 247.576 193.837 248.386 191.47C249.195 189.104 256.841 164.038 256.841 164.038L242.649 160.105Z" fill="#263238"/>
<path d="M255.22 127.762L253.302 150.954L252.291 163.122C246.756 165.815 241.346 161.767 241.011 161.503C242.516 157.087 244.267 132.161 255.22 127.762Z" fill="#999999" stroke="#263238" stroke-linecap="round" stroke-linejoin="round"/>
<path d="M253.267 150.954L252.255 163.122C246.721 165.814 241.31 161.767 240.976 161.503C241.214 161.608 244.126 162.84 246.017 161.503C245.356 160.788 244.766 160.01 244.258 159.18C244.143 158.722 246.017 158.599 246.017 158.599C246.017 158.599 244.786 148.737 248.067 144.522C249.352 142.921 251.358 146.264 253.267 150.954Z" fill="#263238"/>
<path d="M275.096 342.535L275.976 345.122C274.643 347.323 273.149 349.423 271.507 351.404C271.507 351.404 270.627 351.122 269.184 352.398C268.295 353.285 267.747 354.456 267.635 355.706C267.635 355.706 260.913 363.765 252.388 363.88C243.863 363.994 246.432 359.701 246.432 359.701L275.096 342.535Z" fill="#27AE60" stroke="#263238" stroke-linecap="round" stroke-linejoin="round"/>
<path d="M267.08 322.026C267.08 322.026 255.643 317.812 253.408 326.241C253.408 326.241 255.449 335.523 254.226 340.599C253.003 345.676 246.845 355.372 246.466 357.21C245.718 360.818 246.281 361.064 246.281 361.064C246.281 361.064 250.76 363.651 256.778 360.879C262.796 358.108 273.213 346.178 274.84 343.723C276.468 341.268 269.737 331.59 269.737 331.59L267.08 322.026Z" fill="white"/>
<path opacity="0.4" d="M267.08 322.026C267.08 322.026 255.643 317.812 253.408 326.241C253.408 326.241 255.449 335.523 254.226 340.599C253.003 345.676 246.845 355.372 246.466 357.21C245.718 360.818 246.281 361.064 246.281 361.064C246.281 361.064 250.76 363.651 256.778 360.879C262.796 358.108 273.213 346.178 274.84 343.723C276.468 341.268 269.737 331.59 269.737 331.59L267.08 322.026Z" fill="#27AE60"/>
<path d="M267.08 322.026C267.08 322.026 255.643 317.812 253.408 326.241C253.408 326.241 255.449 335.523 254.226 340.599C253.003 345.676 246.845 355.372 246.466 357.21C245.718 360.818 246.281 361.064 246.281 361.064C246.281 361.064 250.76 363.651 256.778 360.879C262.796 358.108 273.213 346.178 274.84 343.723C276.468 341.268 269.737 331.59 269.737 331.59L267.08 322.026Z" stroke="#263238" stroke-linecap="round" stroke-linejoin="round"/>
<path d="M261.232 333.948C262.227 339.627 261.216 345.474 258.373 350.489" stroke="#263238" stroke-linecap="round" stroke-linejoin="round"/>
<path d="M258.372 352.706C257.947 353.777 257.286 354.739 256.44 355.522C255.593 356.305 254.582 356.887 253.48 357.228C251.175 357.845 248.747 357.845 246.442 357.228L249.187 351.667C252.101 352.828 255.273 353.187 258.372 352.706Z" fill="#27AE60" stroke="#263238" stroke-linecap="round" stroke-linejoin="round"/>
<path d="M259.989 349.336C259.989 349.336 254.006 349.697 250.883 348.457" stroke="#263238" stroke-linecap="round" stroke-linejoin="round"/>
<path d="M261.098 346.037C261.098 346.037 255.503 346.917 252.379 345.157" stroke="#263238" stroke-linecap="round" stroke-linejoin="round"/>
<path d="M262.049 342.368C262.049 342.368 257.149 343.081 253.946 341.568" stroke="#263238" stroke-linecap="round" stroke-linejoin="round"/>
<path d="M262.595 338.215C262.595 338.215 257.14 339.922 254.562 338.215" stroke="#263238" stroke-linecap="round" stroke-linejoin="round"/>
<path d="M263.412 327.956L264.363 333.947C264.363 333.947 257.148 338.698 252.379 332.76V326.504C252.379 326.504 254.174 330.71 263.412 327.956Z" fill="#27AE60" stroke="#263238" stroke-linecap="round" stroke-linejoin="round"/>
<path d="M257.148 193.458C249.837 216.623 227.146 253.778 229.443 263.289C230.701 268.48 238.188 297.892 244.048 310.799C246.274 315.735 251.086 319.035 251.086 319.035L254.562 326.487C263.034 330.173 266.07 322.677 266.07 322.677L264.363 314.231C268.903 305.978 267.002 305.978 261.099 263.201C260.404 258.16 272.096 242.578 272.096 242.578L278.097 281.783L279.073 313.896L282.188 323.821C282.188 323.821 282.962 333.138 282.892 333.701H296.819L298.333 323.46C298.333 323.46 304.799 317.363 304.799 310.324C304.799 303.286 303.409 267.433 304.799 256.99C306.189 246.546 301.544 197.857 301.544 197.857L257.148 193.458Z" fill="#263238"/>
<path d="M162.467 172.818L181.823 174.56C182.261 174.599 182.666 174.811 182.949 175.149C183.231 175.487 183.367 175.924 183.328 176.363L182.085 190.176L159.42 188.136L160.664 174.323C160.703 173.884 160.915 173.479 161.253 173.197C161.591 172.914 162.028 172.778 162.467 172.818Z" fill="#27AE60"/>
<path opacity="0.3" d="M162.469 172.815L181.825 174.557C182.264 174.597 182.669 174.809 182.951 175.147C183.233 175.485 183.37 175.922 183.33 176.36L182.087 190.174L159.423 188.134L160.666 174.321C160.706 173.882 160.918 173.477 161.256 173.195C161.594 172.912 162.03 172.776 162.469 172.815Z" fill="black" fill-opacity="0.7"/>
<path opacity="0.3" d="M182.127 174.318L176.579 173.841L175.625 184.939L181.174 185.416L182.127 174.318Z" fill="white" fill-opacity="0.7"/>
<path d="M162.467 172.818L181.823 174.56C182.261 174.599 182.666 174.811 182.949 175.149C183.231 175.487 183.367 175.924 183.328 176.363L182.085 190.176L159.42 188.136L160.664 174.323C160.703 173.884 160.915 173.479 161.253 173.197C161.591 172.914 162.028 172.778 162.467 172.818V172.818Z" stroke="#263238" stroke-width="1.00404" stroke-linecap="round" stroke-linejoin="round"/>
<path d="M195.878 174.039L215.163 175.696C215.6 175.734 216.004 175.943 216.287 176.279C216.569 176.614 216.707 177.048 216.669 177.486L215.487 191.248L192.906 189.308L194.088 175.546C194.126 175.109 194.336 174.704 194.671 174.422C195.007 174.139 195.441 174.002 195.878 174.039Z" fill="#27AE60"/>
<path opacity="0.3" d="M195.877 174.04L215.162 175.697C215.599 175.734 216.003 175.944 216.285 176.279C216.568 176.615 216.706 177.049 216.668 177.486L215.486 191.249L192.905 189.309L194.087 175.546C194.124 175.109 194.334 174.705 194.67 174.422C195.005 174.14 195.439 174.002 195.877 174.04Z" fill="black" fill-opacity="0.7"/>
<path opacity="0.3" d="M215.057 177.154L211.708 176.866L210.755 187.964L214.103 188.251L215.057 177.154Z" fill="white" fill-opacity="0.7"/>
<path d="M195.878 174.039L215.163 175.696C215.6 175.734 216.004 175.943 216.287 176.279C216.569 176.614 216.707 177.048 216.669 177.486L215.487 191.248L192.906 189.308L194.088 175.546C194.126 175.109 194.336 174.704 194.671 174.422C195.007 174.139 195.441 174.002 195.878 174.039Z" stroke="#263238" stroke-linecap="round" stroke-linejoin="round"/>
<path d="M188.873 173.434L208.158 175.09C208.595 175.128 208.999 175.337 209.282 175.673C209.564 176.009 209.702 176.443 209.665 176.88L208.482 190.642L185.901 188.702L187.084 174.94C187.121 174.503 187.331 174.099 187.666 173.816C188.002 173.534 188.436 173.396 188.873 173.434Z" fill="#27AE60" stroke="#263238" stroke-linecap="round" stroke-linejoin="round"/>
<path d="M222.174 176.3L241.459 177.957C241.896 177.994 242.301 178.204 242.583 178.54C242.866 178.875 243.003 179.309 242.966 179.746L241.784 193.5L219.203 191.56L220.386 177.798C220.425 177.362 220.636 176.961 220.971 176.68C221.306 176.399 221.739 176.263 222.174 176.3Z" fill="#27AE60" stroke="#263238" stroke-linecap="round" stroke-linejoin="round"/>
<path opacity="0.3" d="M208.427 176.58L202.878 176.103L201.925 187.201L207.473 187.677L208.427 176.58Z" fill="white" fill-opacity="0.7"/>
<path opacity="0.3" d="M241.364 179.406L235.815 178.929L234.862 190.027L240.411 190.504L241.364 179.406Z" fill="white" fill-opacity="0.7"/>
<path d="M251.869 191.162L246.423 254.447L144.461 245.649L149.907 182.373C149.951 181.849 150.099 181.339 150.34 180.872C150.582 180.406 150.913 179.991 151.315 179.653C151.718 179.315 152.183 179.059 152.684 178.9C153.185 178.742 153.712 178.684 154.236 178.73L248.218 186.807C248.745 186.85 249.258 186.997 249.728 187.24C250.197 187.483 250.614 187.817 250.954 188.222C251.293 188.627 251.549 189.095 251.706 189.6C251.863 190.105 251.919 190.636 251.869 191.162Z" fill="#27AE60"/>
<path opacity="0.3" d="M251.869 191.162L246.423 254.447L144.461 245.649L149.907 182.373C149.951 181.849 150.099 181.339 150.34 180.872C150.582 180.406 150.913 179.991 151.315 179.653C151.718 179.315 152.183 179.059 152.684 178.9C153.185 178.742 153.712 178.684 154.236 178.73L248.218 186.807C248.745 186.85 249.258 186.997 249.728 187.24C250.197 187.483 250.614 187.817 250.954 188.222C251.293 188.627 251.549 189.095 251.706 189.6C251.863 190.105 251.919 190.636 251.869 191.162Z" fill="black" fill-opacity="0.7"/>
<path d="M251.869 191.162L246.423 254.447L144.461 245.649L149.907 182.373C149.951 181.849 150.099 181.339 150.34 180.872C150.582 180.406 150.913 179.991 151.315 179.653C151.718 179.315 152.183 179.059 152.684 178.9C153.185 178.742 153.712 178.684 154.236 178.73L248.218 186.807C248.745 186.85 249.258 186.997 249.728 187.24C250.197 187.483 250.614 187.817 250.954 188.222C251.293 188.627 251.549 189.095 251.706 189.6C251.863 190.105 251.919 190.636 251.869 191.162V191.162Z" stroke="#263238" stroke-linecap="round" stroke-linejoin="round"/>
<path d="M251.87 191.162L246.424 254.447L170.76 247.937L176.215 184.66C176.259 184.136 176.406 183.627 176.648 183.16C176.89 182.693 177.221 182.279 177.623 181.94C178.025 181.602 178.49 181.346 178.991 181.188C179.492 181.03 180.02 180.972 180.543 181.018L248.228 186.833C248.752 186.877 249.261 187.025 249.728 187.266C250.195 187.508 250.609 187.839 250.948 188.242C251.286 188.644 251.542 189.109 251.7 189.61C251.858 190.111 251.916 190.638 251.87 191.162Z" fill="#27AE60" stroke="#263238" stroke-linecap="round" stroke-linejoin="round"/>
<path opacity="0.3" d="M246.555 192.975L181.88 187.414C181.449 187.376 181.05 187.171 180.768 186.842C180.487 186.513 180.346 186.087 180.375 185.655C180.414 185.224 180.619 184.825 180.948 184.543C181.277 184.262 181.703 184.121 182.135 184.15L246.811 189.711C247.242 189.749 247.641 189.955 247.922 190.283C248.203 190.612 248.344 191.039 248.315 191.47C248.277 191.902 248.071 192.301 247.742 192.582C247.413 192.863 246.987 193.004 246.555 192.975Z" fill="white" fill-opacity="0.7"/>
<path d="M297.278 334.062C297.278 334.062 292.404 330.587 282.321 331.282C282.321 331.282 281.582 343.38 280.209 346.899C278.837 350.418 271.605 356.515 270.259 357.562C268.913 358.609 268.913 362.261 268.913 362.261H299.548C299.155 357.024 298.34 351.828 297.111 346.723L297.278 334.062Z" fill="white"/>
<path opacity="0.4" d="M297.276 334.062C297.276 334.062 292.402 330.587 282.319 331.282C282.319 331.282 281.58 343.38 280.208 346.899C278.835 350.418 271.603 356.515 270.257 357.562C268.911 358.609 268.911 362.261 268.911 362.261H299.546C299.153 357.024 298.338 351.828 297.109 346.723L297.276 334.062Z" fill="#27AE60"/>
<path d="M297.278 334.062C297.278 334.062 292.404 330.587 282.321 331.282C282.321 331.282 281.582 343.38 280.209 346.899C278.837 350.418 271.605 356.515 270.259 357.562C268.913 358.609 268.913 362.261 268.913 362.261H299.548C299.155 357.024 298.34 351.828 297.111 346.723L297.278 334.062Z" stroke="#263238" stroke-linecap="round" stroke-linejoin="round"/>
<path d="M290.951 335.629C290.951 335.629 290.229 346.767 288.496 349.706C287.571 351.321 286.428 352.801 285.1 354.105" stroke="#263238" stroke-linecap="round" stroke-linejoin="round"/>
<path d="M284.254 355.644C284.254 355.644 282.715 357.562 281.008 357.817C279.301 358.072 270.283 357.562 270.283 357.562L273.96 354.377C273.96 354.377 281.439 353.119 284.254 355.644Z" fill="#27AE60" stroke="#263238" stroke-linecap="round" stroke-linejoin="round"/>
<path d="M287.441 353.031C287.441 353.031 280.913 349.283 276.258 352.152" stroke="#263238" stroke-linecap="round" stroke-linejoin="round"/>
<path d="M289.015 350.489C289.015 350.489 284.458 346.926 279.082 348.879" stroke="#263238" stroke-linecap="round" stroke-linejoin="round"/>
<path d="M290.951 346.609C290.951 346.609 286.042 342.79 280.869 345.218" stroke="#263238" stroke-linecap="round" stroke-linejoin="round"/>
<path d="M291.621 341.761C291.621 341.761 285.664 338.559 281.335 340.987" stroke="#263238" stroke-linecap="round" stroke-linejoin="round"/>
<path d="M299.538 362.261V364.522H296.019C296.019 364.522 293.001 362.762 290.133 364.522H273.61C271.864 364.516 270.14 364.129 268.56 363.387L268.903 362.261H299.538Z" fill="#27AE60" stroke="#263238" stroke-linecap="round" stroke-linejoin="round"/>
<path d="M295.147 333.349L294.364 338.285C294.364 338.285 285.17 335.303 280.094 337.238V331.167C280.094 331.167 289.534 327.859 295.147 333.349Z" fill="#27AE60" stroke="#263238" stroke-linecap="round" stroke-linejoin="round"/>
<path d="M305.09 210.377C305.09 210.377 285.549 214.204 266.377 207.993C262.012 206.602 257.836 204.675 253.946 202.256C253.946 202.256 253.998 201.025 254.034 199.01C254.192 191.144 254.148 171.357 250.004 166.456C247.364 163.368 245.297 144.276 250.391 134.625L265.973 122.096C287.546 126.31 292.103 132.02 295.667 144.338C296.326 146.59 296.942 149.062 297.629 151.79C298.376 154.764 299.08 158.397 299.749 162.348C302.987 182.021 305.09 210.377 305.09 210.377Z" fill="#999999"/>
<path opacity="0.2" d="M299.75 162.348L290.952 201.65C290.952 201.65 278.238 205.169 266.387 207.993C262.019 206.603 257.84 204.676 253.946 202.257C253.946 202.257 253.999 201.025 254.034 199.01C264.68 193.564 280.218 185.558 280.095 185.18C279.892 184.59 280.095 164.064 280.095 164.064C280.095 164.064 294.172 160.8 295.667 144.312C296.327 146.564 296.943 149.037 297.629 151.764C298.377 154.747 299.081 158.354 299.75 162.348Z" fill="black"/>
<path d="M305.09 210.377C305.09 210.377 285.549 214.204 266.377 207.993C262.012 206.602 257.836 204.675 253.946 202.256C253.946 202.256 253.998 201.025 254.034 199.01C254.192 191.144 254.148 171.357 250.004 166.456C247.364 163.368 245.297 144.276 250.391 134.625L265.973 122.096C287.546 126.31 292.103 132.02 295.667 144.338C296.326 146.59 296.942 149.062 297.629 151.79C298.376 154.764 299.08 158.397 299.749 162.348C302.987 182.021 305.09 210.377 305.09 210.377Z" stroke="#263238" stroke-linecap="round" stroke-linejoin="round"/>
<path d="M266.659 105.652C266.659 105.652 259.779 115.506 268.929 123.196C268.929 123.196 257.825 135.654 254.174 133.938C252.634 133.217 254.174 128.721 254.174 128.721L247.734 116.808L266.659 105.652Z" fill="white" stroke="#263238" stroke-linecap="round" stroke-linejoin="round"/>
<path d="M264.416 110.755C266.563 101.367 265.534 87.3866 252.38 88.6272C243.16 89.507 236.587 94.6099 239.183 106.98C240.265 112.198 241.154 119.588 245.94 126.257C247.269 128.105 261.17 121.568 260.325 116.28" fill="white"/>
<path d="M264.416 110.755C266.563 101.367 265.534 87.3866 252.38 88.6272C243.16 89.507 236.587 94.6099 239.183 106.98C240.265 112.198 241.154 119.588 245.94 126.257C247.269 128.105 261.17 121.568 260.325 116.28" stroke="#263238" stroke-linecap="round" stroke-linejoin="round"/>
<path d="M245.596 104.887C246.524 104.528 247.523 104.391 248.513 104.487C249.503 104.584 250.456 104.91 251.297 105.441" stroke="#263238" stroke-linecap="round" stroke-linejoin="round"/>
<path d="M238.98 106.04C239.149 105.68 239.442 105.392 239.806 105.231C240.169 105.069 240.579 105.044 240.96 105.16" stroke="#263238" stroke-linecap="round" stroke-linejoin="round"/>
<path d="M242.271 107.993C242.271 107.993 239.562 112.928 239.553 113.632C239.544 114.336 242.887 114.574 242.887 114.574" fill="white"/>
<path d="M242.271 107.993C242.271 107.993 239.562 112.928 239.553 113.632C239.544 114.336 242.887 114.574 242.887 114.574" stroke="#263238" stroke-linecap="round" stroke-linejoin="round"/>
<path d="M248.094 108.996C248.094 109.533 247.857 109.973 247.523 109.99C247.188 110.008 246.907 109.568 246.889 109.031C246.871 108.494 247.127 108.055 247.461 108.046C247.795 108.037 248.077 108.477 248.094 108.996Z" fill="#263238"/>
<path d="M244.267 118.163C244.267 118.163 249.466 117.186 250.425 115.356" stroke="#263238" stroke-linecap="round" stroke-linejoin="round"/>
<path d="M238.944 98.4377L242.991 97.2587C242.991 97.2587 248.666 94.6192 249.872 94.9888C251.077 95.3583 253.523 99.1151 253.444 101.262C253.444 101.262 257.262 104.623 257.746 109.497L258.907 108.969C258.907 108.969 258.846 104.57 261.345 104.684C263.843 104.799 264.969 107.79 264.802 108.732C264.635 109.673 261.899 113.579 261.899 113.579C261.899 113.579 268.163 112.647 268.366 100.382C268.568 88.1174 255.124 86.1202 248.587 86.6217C245.277 86.9387 241.952 87.0621 238.628 86.9912L238.997 90.5105L236.358 91.2055L238.346 93.6426L236.164 94.6368L238.944 98.4377Z" fill="#263238"/>
<path d="M261.61 232.171C261.61 232.171 277.535 236.385 281.846 248.245" stroke="white" stroke-linecap="round" stroke-linejoin="round"/>
<path d="M268.903 238.548C268.903 238.548 260.299 252.881 247.128 260.324" stroke="white" stroke-linecap="round" stroke-linejoin="round"/>
<path d="M256.805 319.15C256.805 319.15 261.697 318.05 263.034 316.149" stroke="white" stroke-linecap="round" stroke-linejoin="round"/>
<path d="M284.045 320.97C284.045 320.97 288.832 318.489 293.6 320.97" stroke="white" stroke-linecap="round" stroke-linejoin="round"/>
<path d="M299.537 254.245C299.537 254.245 291.504 275.053 287.439 276.98" stroke="white" stroke-linecap="round" stroke-linejoin="round"/>
<path d="M264.363 221.657C264.583 223.918 274.041 234.397 281.845 238.549" stroke="white" stroke-linecap="round" stroke-linejoin="round"/>
<path d="M272.43 212.815C273.569 215.62 273.805 218.711 273.108 221.657C272.349 224.2 272.349 226.909 273.108 229.452" stroke="white" stroke-linecap="round" stroke-linejoin="round"/>
<path d="M255.221 169.545C255.221 169.545 270.028 188.707 285.944 194.998" stroke="#263238" stroke-linecap="round" stroke-linejoin="round"/>
<path d="M270.548 138.566C270.548 138.566 270.495 151.596 279.892 157.474" stroke="#263238" stroke-linecap="round" stroke-linejoin="round"/>
<path d="M275.836 157.58C273.848 159.533 276.012 184.045 276.012 184.045C276.012 184.045 264.46 188.567 260.844 191.479C257.228 194.391 240.098 201.078 240.098 201.078C240.098 201.078 237.458 210.07 240.749 210.378C244.039 210.686 278.115 199.072 285.91 194.998C285.91 194.998 290.987 165.085 290.951 157.474" fill="white"/>
<path d="M275.836 157.58C273.848 159.533 276.012 184.045 276.012 184.045C276.012 184.045 264.46 188.567 260.844 191.479C257.228 194.391 240.098 201.078 240.098 201.078C240.098 201.078 237.458 210.07 240.749 210.378C244.039 210.686 278.115 199.072 285.91 194.998C285.91 194.998 290.987 165.085 290.951 157.474" stroke="#263238" stroke-linecap="round" stroke-linejoin="round"/>
<path d="M241.452 200.54C239.869 200.241 237.053 199.203 235.575 199.546C234.097 199.889 231.396 201.517 228.616 202.186C225.836 202.854 226.988 203.945 228.616 204.271C229.807 204.469 231.023 204.469 232.214 204.271L229.953 206.479C228.658 207.18 227.321 207.8 225.95 208.336C225.132 208.336 222.237 209.119 222.431 210.35C222.624 211.582 224.287 211.441 226.143 211.512C226.143 211.512 223.187 212.101 223.504 213.782C223.698 214.934 227.023 213.896 228.721 213.896C228.721 213.896 227.331 215.409 228.369 215.876C229.408 216.342 231.713 215.181 231.713 215.181C231.713 215.181 231.625 216.43 232.663 216.553C233.701 216.676 236.314 215.673 238.091 214.6C239.842 213.472 241.517 212.232 243.106 210.887C243.779 210.272 244.549 209.773 245.385 209.409" fill="white"/>
<path d="M241.452 200.54C239.869 200.241 237.053 199.203 235.575 199.546C234.097 199.889 231.396 201.517 228.616 202.186C225.836 202.854 226.988 203.945 228.616 204.271C229.807 204.469 231.023 204.469 232.214 204.271L229.953 206.479C228.658 207.18 227.321 207.8 225.95 208.336C225.132 208.336 222.237 209.119 222.431 210.35C222.624 211.582 224.287 211.441 226.143 211.512C226.143 211.512 223.187 212.101 223.504 213.782C223.698 214.934 227.023 213.896 228.721 213.896C228.721 213.896 227.331 215.409 228.369 215.876C229.408 216.342 231.713 215.181 231.713 215.181C231.713 215.181 231.625 216.43 232.663 216.553C233.701 216.676 236.314 215.673 238.091 214.6C239.842 213.472 241.517 212.232 243.106 210.887C243.779 210.272 244.549 209.773 245.385 209.409" stroke="#263238" stroke-linecap="round" stroke-linejoin="round"/>
<path d="M226.187 211.548C227.004 211.504 227.818 211.41 228.624 211.266C229.319 211.09 230.014 210.862 230.014 210.862" stroke="#263238" stroke-linecap="round" stroke-linejoin="round"/>
<path d="M228.73 213.931C229.793 213.782 230.818 213.429 231.748 212.893" stroke="#263238" stroke-linecap="round" stroke-linejoin="round"/>
<path d="M231.723 215.216C232.509 215.117 233.262 214.837 233.922 214.398" stroke="#263238" stroke-linecap="round" stroke-linejoin="round"/>
<path d="M230.235 207.149C230.235 207.149 229.602 208.6 230.235 209.41C230.869 210.219 231.634 210.29 231.748 211.169C231.863 212.049 233.376 212.049 233.922 212.621C234.467 213.193 234.881 214.293 236.623 214.381" stroke="#263238" stroke-linecap="round" stroke-linejoin="round"/>
<path d="M275.096 132.161C269.104 145.719 275.096 164.529 275.096 164.529C275.096 164.529 289.595 169.456 290.932 167.336C292.27 165.215 294.716 154.816 295.129 150.012" fill="#999999"/>
<path d="M275.096 132.161C269.104 145.719 275.096 164.529 275.096 164.529C275.096 164.529 289.595 169.456 290.932 167.336C292.27 165.215 294.716 154.816 295.129 150.012" stroke="#263238" stroke-linecap="round" stroke-linejoin="round"/>
<path d="M290.951 151.518C290.951 151.518 284.793 159.99 279.892 160.105" stroke="#263238" stroke-linecap="round" stroke-linejoin="round"/>
<path d="M70.8236 364.523C70.8236 364.523 69.3191 358.777 71.0788 356.648C74.2285 352.83 70.6917 349.61 73.859 348.299L75.1875 349.838C75.4427 348.281 74.7036 343.521 80.5808 342.905C87.6898 342.158 87.8218 347.304 88.2089 349.064L88.0857 346.68C91.1211 346.68 89.5462 349.706 94.1389 354.651C95.3429 355.986 96.2594 357.554 96.8316 359.259C97.4037 360.963 97.6192 362.767 97.4646 364.558L70.8236 364.523Z" fill="#263238"/>
<path d="M125.011 364.522C122.152 363.246 124.774 352.46 124.774 352.46C124.774 352.46 120.929 349.882 124.774 347.181C126.261 348.441 128.064 349.271 129.988 349.581C131.912 349.891 133.885 349.67 135.692 348.94C135.692 348.94 136.44 341.726 140.971 342.65C140.971 342.65 142.133 347.225 144.781 349.838C151.951 356.876 161.216 357.756 162.764 361.135C163.231 362.155 162.668 364.487 162.668 364.487L125.011 364.522Z" fill="#263238"/>
<path d="M112.79 192.5L116.31 199.961C116.31 199.961 130.862 230.033 139.775 264.469C139.986 265.288 144.596 281.6 140.901 322.221L143.012 329.347L140.707 341.119C140.707 341.119 144.174 346.126 144.051 347.762C144.051 347.762 135.499 349.355 132.613 350.885C130.396 352.082 123.735 358.654 123.735 358.654C121.844 358.267 121.677 350.63 121.677 350.63C121.677 350.63 117.726 282.823 116.591 279.902C115.456 276.981 108.523 264.382 97.7016 235.55C97.7016 235.55 97.4552 275.819 94.5694 286.008C91.9915 295.07 95.0445 320.435 95.0445 320.435L93.2849 348.668C93.2849 348.668 99.3732 354.994 94.4374 356.692C94.4374 356.692 91.1381 350.349 81.7416 348.906C76.9642 348.167 71.0166 356.648 71.0166 356.648C68.9226 355.98 71.8964 345.325 71.8964 345.325C65.2362 295.07 70.1368 304.167 68.8171 279.602C67.9372 263.836 63.4941 196.389 68.7379 190.908L112.79 192.5Z" fill="#BFBFBF"/>
<path opacity="0.2" d="M66.295 215.727C89.8214 217.574 110.189 209.876 119.031 205.855C117.351 202.089 116.322 199.96 116.322 199.96L112.802 192.508L68.8113 190.907C66.9461 192.887 66.2862 202.943 66.295 215.727Z" fill="black"/>
<path opacity="0.2" d="M97.9409 236.068C108.648 264.531 115.537 276.989 116.646 279.892C117.288 281.582 118.863 304.606 120.095 323.927C121.503 306.331 122.954 287.793 123.077 284.159C123.341 276.91 118.106 266.977 117.323 264.407C116.54 261.838 118.309 259.058 118.309 259.058L108.895 247.181C109.211 243.151 104.223 225.563 104.223 225.563C101.258 228.37 98.6184 234.344 97.9409 236.068Z" fill="black"/>
<path d="M112.79 192.5L116.31 199.961C116.31 199.961 130.862 230.033 139.775 264.469C139.986 265.288 144.596 281.6 140.901 322.221L143.012 329.347L140.707 341.119C140.707 341.119 144.174 346.126 144.051 347.762C144.051 347.762 135.499 349.355 132.613 350.885C130.396 352.082 123.735 358.654 123.735 358.654C121.844 358.267 121.677 350.63 121.677 350.63C121.677 350.63 117.726 282.823 116.591 279.902C115.456 276.981 108.523 264.382 97.7016 235.55C97.7016 235.55 97.4552 275.819 94.5694 286.008C91.9915 295.07 95.0445 320.435 95.0445 320.435L93.2849 348.668C93.2849 348.668 99.3732 354.994 94.4374 356.692C94.4374 356.692 91.1381 350.349 81.7416 348.906C76.9642 348.167 71.0166 356.648 71.0166 356.648C68.9226 355.98 71.8964 345.325 71.8964 345.325C65.2362 295.07 70.1368 304.167 68.8171 279.602C67.9372 263.836 63.4941 196.389 68.7379 190.908L112.79 192.5Z" stroke="#263238" stroke-linecap="round" stroke-linejoin="round"/>
<path d="M97.7373 235.549C97.7373 235.549 103.113 225.176 107.697 222.281" stroke="#263238" stroke-linecap="round" stroke-linejoin="round"/>
<path d="M109.72 218.92C109.72 218.92 93.3907 223.891 87.7246 224.85" stroke="#263238" stroke-linecap="round" stroke-linejoin="round"/>
<path d="M101.363 202.257C102.067 215.85 106.862 218.164 102.242 221.129C102.242 221.129 102.374 227.49 100.069 231.52" stroke="#263238" stroke-linecap="round" stroke-linejoin="round"/>
<path d="M72.7513 197.057C72.7513 197.057 74.6781 217.953 68.2466 221.886" stroke="#263238" stroke-linecap="round" stroke-linejoin="round"/>
<path d="M68.2468 203.796C68.2468 203.796 67.7629 217.706 68.2468 228.915C68.2468 228.915 69.8569 276.293 71.467 282.241C73.077 288.188 68.9859 297.198 69.3378 322.906" stroke="#263238" stroke-linecap="round" stroke-linejoin="round"/>
<path d="M83.6609 343.028C82.1384 342.697 80.548 342.909 79.165 343.627" stroke="#263238" stroke-linecap="round" stroke-linejoin="round"/>
<path d="M93.3378 348.668C91.32 346.704 88.9811 345.1 86.4224 343.926" stroke="#263238" stroke-linecap="round" stroke-linejoin="round"/>
<path d="M90.6994 238.831C87.0921 242.878 81.3733 250.506 75.5137 251.148" stroke="#263238" stroke-linecap="round" stroke-linejoin="round"/>
<path d="M96.2155 232.25C95.1069 233.649 93.9631 235.021 92.8018 236.385" stroke="#263238" stroke-linecap="round" stroke-linejoin="round"/>
<path d="M91.0762 279.602C91.0762 279.602 82.8763 290.766 78.3804 291.409" stroke="#263238" stroke-linecap="round" stroke-linejoin="round"/>
<path d="M100.72 233.534C100.72 233.534 115.325 274.208 120.402 278.22C120.402 278.22 120.974 308.134 121.141 318.578C121.308 329.021 123.71 342.905 123.71 342.905" stroke="#263238" stroke-linecap="round" stroke-linejoin="round"/>
<path d="M139.3 342.606C139.3 342.606 133.678 344.55 130.941 345.791C129.261 346.611 127.945 348.025 127.246 349.759" stroke="#263238" stroke-linecap="round" stroke-linejoin="round"/>
<path d="M125.074 263.554C117.234 258.636 106.896 252.486 102.726 243.82" stroke="#263238" stroke-linecap="round" stroke-linejoin="round"/>
<path d="M131.91 267.609C130.423 266.791 128.963 265.938 127.511 265.058" stroke="#263238" stroke-linecap="round" stroke-linejoin="round"/>
<path d="M107.204 207.755C102.99 207.693 98.4061 207.139 94.7725 204.755" stroke="#263238" stroke-linecap="round" stroke-linejoin="round"/>
<path d="M113.9 207.36C112.694 207.528 111.48 207.633 110.266 207.695" stroke="#263238" stroke-linecap="round" stroke-linejoin="round"/>
<path d="M121.721 113.958C118.501 109.084 102.093 107.844 91.5613 107.844C81.0298 107.844 68.246 106.084 62.4744 117.961C58.0753 127.032 68.2108 175 68.2108 175L65.7297 195.711C84.8042 201.694 117.481 200.374 117.481 200.374L113.082 181.652C113.082 181.652 124.942 118.824 121.721 113.958Z" fill="#263238"/>
<path d="M85.3052 95.7982C85.3052 95.7982 86.7217 107.086 82.4282 109.523C82.4282 109.523 84.575 117.803 92.1062 118.322C99.6375 118.841 102.963 110.755 102.963 110.755L85.3052 95.7982Z" fill="white" stroke="#263238" stroke-linecap="round" stroke-linejoin="round"/>
<path d="M125.217 66.8159L144.491 65.0381C144.928 64.9978 145.363 65.1327 145.7 65.4131C146.038 65.6935 146.25 66.0964 146.29 66.5332L147.559 80.288L125.026 82.3665L123.757 68.6117C123.717 68.1809 123.848 67.7516 124.121 67.4159C124.394 67.0802 124.787 66.8648 125.217 66.8159Z" fill="#52D1BD"/>
<path opacity="0.3" d="M125.217 66.8148L144.492 65.037C144.929 64.9967 145.363 65.1316 145.701 65.412C146.038 65.6924 146.25 66.0953 146.291 66.5321L147.559 80.2869L125.026 82.3654L123.757 68.6106C123.718 68.1798 123.848 67.7505 124.121 67.4148C124.394 67.0791 124.788 66.8637 125.217 66.8148Z" fill="black" fill-opacity="0.7"/>
<path opacity="0.3" d="M145.054 66.4293L139.508 66.9408L140.531 78.0322L146.077 77.5207L145.054 66.4293Z" fill="white" fill-opacity="0.7"/>
<path d="M125.217 66.8159L144.491 65.0381C144.928 64.9978 145.363 65.1327 145.7 65.4131C146.038 65.6935 146.25 66.0964 146.29 66.5332L147.559 80.288L125.026 82.3665L123.757 68.6117C123.717 68.1809 123.848 67.7516 124.121 67.4159C124.394 67.0802 124.787 66.8648 125.217 66.8159V66.8159Z" stroke="#263238" stroke-linecap="round" stroke-linejoin="round"/>
<path d="M158.543 63.7239L177.817 61.9461C178.254 61.9058 178.689 62.0407 179.026 62.3211C179.364 62.6015 179.576 63.0044 179.616 63.4412L180.885 77.196L158.317 79.2777L157.048 65.5229C157.008 65.0861 157.143 64.6512 157.423 64.3138C157.703 63.9764 158.106 63.7642 158.543 63.7239Z" fill="#52D1BD"/>
<path opacity="0.3" d="M158.542 63.7248L177.816 61.9469C178.253 61.9067 178.688 62.0415 179.025 62.3219C179.363 62.6023 179.575 63.0053 179.615 63.4421L180.884 77.1969L158.316 79.2786L157.047 65.5238C157.007 65.087 157.142 64.652 157.422 64.3146C157.702 63.9773 158.105 63.7651 158.542 63.7248Z" fill="black" fill-opacity="0.7"/>
<path opacity="0.3" d="M177.979 63.4015L174.632 63.7102L175.655 74.8017L179.002 74.493L177.979 63.4015Z" fill="white" fill-opacity="0.7"/>
<path d="M158.543 63.7239L177.817 61.9461C178.254 61.9058 178.689 62.0407 179.026 62.3211C179.364 62.6015 179.576 63.0044 179.616 63.4412L180.885 77.196L158.317 79.2777L157.048 65.5229C157.008 65.0861 157.143 64.6512 157.423 64.3138C157.703 63.9764 158.106 63.7642 158.543 63.7239V63.7239Z" stroke="#263238" stroke-linecap="round" stroke-linejoin="round"/>
<path d="M151.541 64.3633L170.815 62.5854C171.252 62.5452 171.687 62.68 172.024 62.9604C172.361 63.2408 172.573 63.6438 172.614 64.0806L173.883 77.8354L151.279 79.9203L150.01 66.1655C149.99 65.9462 150.014 65.7251 150.08 65.5151C150.146 65.3051 150.254 65.1105 150.397 64.9427C150.539 64.7748 150.714 64.6371 150.91 64.5376C151.107 64.4381 151.321 64.3788 151.541 64.3633Z" fill="#52D1BD" stroke="#263238" stroke-linecap="round" stroke-linejoin="round"/>
<path d="M184.832 61.2927L204.106 59.5148C204.543 59.4745 204.978 59.6094 205.316 59.8898C205.653 60.1702 205.865 60.5731 205.905 61.01L207.174 74.7648L184.606 76.8464L183.337 63.0916C183.297 62.6548 183.432 62.2199 183.712 61.8825C183.992 61.5451 184.395 61.3329 184.832 61.2927Z" fill="#52D1BD" stroke="#263238" stroke-linecap="round" stroke-linejoin="round"/>
<path opacity="0.3" d="M171.345 64.0065L165.799 64.5181L166.822 75.6095L172.368 75.098L171.345 64.0065Z" fill="white" fill-opacity="0.7"/>
<path opacity="0.3" d="M204.27 60.9609L198.724 61.4724L199.747 72.5639L205.293 72.0523L204.27 60.9609Z" fill="white" fill-opacity="0.7"/>
<path d="M216.697 70.653L222.539 133.895L120.612 143.309L114.805 80.0495C114.707 78.9925 115.033 77.9399 115.711 77.1232C116.389 76.3065 117.364 75.7925 118.421 75.6944L212.351 67.0282C212.874 66.9798 213.402 67.0353 213.905 67.1914C214.407 67.3475 214.873 67.6013 215.277 67.9381C215.681 68.2748 216.014 68.688 216.258 69.1539C216.501 69.6198 216.651 70.1293 216.697 70.653Z" fill="#52D1BD"/>
<path opacity="0.3" d="M216.697 70.653L222.539 133.895L120.612 143.309L114.805 80.0495C114.707 78.9925 115.033 77.9399 115.711 77.1232C116.389 76.3065 117.364 75.7925 118.421 75.6944L212.351 67.0282C212.874 66.9798 213.402 67.0353 213.905 67.1914C214.407 67.3475 214.873 67.6013 215.277 67.9381C215.681 68.2748 216.014 68.688 216.258 69.1539C216.501 69.6198 216.651 70.1293 216.697 70.653Z" fill="black" fill-opacity="0.7"/>
<path d="M216.697 70.653L222.539 133.895L120.612 143.309L114.805 80.0495C114.707 78.9925 115.033 77.9399 115.711 77.1232C116.389 76.3065 117.364 75.7925 118.421 75.6944L212.351 67.0282C212.874 66.9798 213.402 67.0353 213.905 67.1914C214.407 67.3475 214.873 67.6013 215.277 67.9381C215.681 68.2748 216.014 68.688 216.258 69.1539C216.501 69.6198 216.651 70.1293 216.697 70.653V70.653Z" stroke="#263238" stroke-linecap="round" stroke-linejoin="round"/>
<path d="M216.699 70.6535L222.541 133.895L146.877 140.872L141.043 77.6305C140.946 76.5735 141.272 75.5209 141.95 74.7042C142.628 73.8875 143.603 73.3735 144.659 73.2754L212.309 67.0287C212.836 66.9741 213.369 67.025 213.876 67.1783C214.383 67.3316 214.855 67.5843 215.263 67.9217C215.672 68.259 216.009 68.6743 216.256 69.1433C216.502 69.6123 216.653 70.1257 216.699 70.6535Z" fill="#52D1BD" stroke="#263238" stroke-linecap="round" stroke-linejoin="round"/>
<path opacity="0.3" d="M211.797 73.3717L147.156 79.3369C146.726 79.3664 146.301 79.2264 145.972 78.947C145.643 78.6676 145.437 78.2708 145.397 77.8412C145.365 77.4117 145.503 76.9867 145.781 76.6577C146.059 76.3287 146.455 76.1219 146.883 76.0816L211.524 70.1164C211.954 70.087 212.379 70.2269 212.708 70.5063C213.037 70.7857 213.243 71.1825 213.284 71.6121C213.311 72.0406 213.171 72.4631 212.894 72.7911C212.617 73.1191 212.224 73.3272 211.797 73.3717Z" fill="white" fill-opacity="0.7"/>
<path d="M98.2127 73.4164C98.2127 73.4164 83.2997 70.425 81.628 80.0238C79.9564 89.6227 85.4201 93.705 85.4201 93.705L98.2127 73.4164Z" fill="#263238"/>
<path d="M85.4194 98.9748C83.7154 94.2031 83.4492 89.0362 84.654 84.1146C86.1145 77.9559 93.4522 69.4832 104.582 77.1817C110.31 81.1496 110.662 89.7631 108.875 97.6463C108.453 99.5291 108.77 101.368 108.145 103.101C105.946 109.172 101.925 113.844 99.7253 113.949C96.0565 114.134 88.7188 109.691 89.0179 105.82" fill="white"/>
<path d="M85.4194 98.9748C83.7154 94.2031 83.4492 89.0362 84.654 84.1146C86.1145 77.9559 93.4522 69.4832 104.582 77.1817C110.31 81.1496 110.662 89.7631 108.875 97.6463C108.453 99.5291 108.77 101.368 108.145 103.101C105.946 109.172 101.925 113.844 99.7253 113.949C96.0565 114.134 88.7188 109.691 89.0179 105.82" stroke="#263238" stroke-linecap="round" stroke-linejoin="round"/>
<path d="M100.28 96.1855C100.28 96.1855 97.3155 94.0388 94.4648 95.7984" stroke="#263238" stroke-linecap="round" stroke-linejoin="round"/>
<path d="M105.875 95.7985C105.875 95.7985 108.119 93.7397 109.58 94.0389" stroke="#263238" stroke-linecap="round" stroke-linejoin="round"/>
<path d="M96.0923 99.4761C96.0923 100.022 96.365 100.47 96.7082 100.47C97.0513 100.47 97.3328 100.022 97.3328 99.4761C97.3328 98.9306 97.0513 98.4907 96.7082 98.4907C96.365 98.4907 96.0923 98.9306 96.0923 99.4761Z" fill="#263238"/>
<path d="M105.877 99.9163C106.222 99.9163 106.501 99.4752 106.501 98.931C106.501 98.3867 106.222 97.9456 105.877 97.9456C105.532 97.9456 105.252 98.3867 105.252 98.931C105.252 99.4752 105.532 99.9163 105.877 99.9163Z" fill="#263238"/>
<path d="M104.618 97.875C103.527 99.3003 105.058 104.729 104.618 105.116C104.178 105.503 101.38 104.403 101.38 104.403C101.38 104.403 100.729 103.576 102.093 103.136" stroke="#263238" stroke-linecap="round" stroke-linejoin="round"/>
<path d="M102.136 107.843C102.136 107.843 98.3795 107.843 97.3765 106.471" stroke="#263238" stroke-linecap="round" stroke-linejoin="round"/>
<path d="M93.1459 87.5107L92.8555 92.0506C92.8555 92.0506 89.6354 93.7134 88.826 95.4027C88.3443 96.5091 88.168 97.7243 88.3157 98.922C88.3157 98.922 86.3625 95.5083 85.3067 95.7898C84.9283 95.8866 84.9284 97.3207 84.9284 97.3207C84.9284 97.3207 80.5293 87.5019 84.506 82.3109C88.4828 77.12 93.1459 87.5107 93.1459 87.5107Z" fill="#757575" stroke="#263238" stroke-linecap="round" stroke-linejoin="round"/>
<path d="M86.9427 97.9447C86.9427 97.9447 86.0628 94.6454 83.0979 93.7744C80.1329 92.9034 82.1652 100.813 84.6903 101.842C87.2154 102.872 87.8489 103.602 87.9984 102.661" fill="white"/>
<path d="M86.9427 97.9447C86.9427 97.9447 86.0628 94.6454 83.0979 93.7744C80.1329 92.9034 82.1652 100.813 84.6903 101.842C87.2154 102.872 87.8489 103.602 87.9984 102.661" stroke="#263238" stroke-linecap="round" stroke-linejoin="round"/>
<path d="M82.9049 86.939C82.6585 86.6047 81.5675 78.1408 87.1544 74.34C92.7413 70.5391 102.182 70.9439 108.191 76.2052C114.2 81.4665 112.493 90.5902 108.191 93.7048V89.8952C108.191 89.8952 106.211 93.7136 100.273 94.0304L102.085 91.2325C102.085 91.2325 99.164 92.9922 94.017 92.8426C94.017 92.8426 96.4365 90.9158 96.0846 89.2001C96.0934 89.2001 87.9199 93.8016 82.9049 86.939Z" fill="#263238"/>
<path d="M83.9503 117.451C79.8327 117.944 73.9731 123.319 77.7916 132.865C80.2287 138.918 100.253 135.32 100.253 135.32C107.679 132.258 118.527 121.243 126.49 116.131C126.49 116.131 124.809 105.573 122.874 107.069C113.873 113.958 106.474 114.433 93.9187 120.469C93.9451 120.433 86.537 117.143 83.9503 117.451Z" fill="white" stroke="#263238" stroke-linecap="round" stroke-linejoin="round"/>
<path d="M93.1438 129.17C93.0206 133.112 94.6395 133.807 97.3669 134.739L93.1438 129.17Z" fill="white"/>
<path d="M93.1438 129.17C93.0206 133.112 94.6395 133.807 97.3669 134.739" stroke="#263238" stroke-linecap="round" stroke-linejoin="round"/>
<path d="M122.275 107.843C122.46 107.271 125.794 101.411 126.736 99.9244C127.677 98.4375 131.883 97.0914 133.51 96.194C135.138 95.2965 135.27 93.9328 136.15 94.9094C137.029 95.886 136.15 98.112 131.275 100.479C133.007 100.574 134.743 100.574 136.475 100.479C137.777 100.285 138.939 99.1062 139.519 99.9244C140.1 100.743 140.214 102.212 137.311 103.109C135.93 103.61 134.484 103.906 133.018 103.989C134.438 104.293 135.835 104.698 137.197 105.203C137.663 105.546 138.358 106.347 139.053 106.47C139.748 106.593 140.505 107.35 139.229 108.23C138.777 108.48 138.27 108.616 137.753 108.625C137.236 108.634 136.725 108.517 136.264 108.283C136.264 108.283 139.634 109.91 138.587 110.922C137.54 111.934 134.188 111.732 134.188 111.732C134.188 111.732 129.217 117.794 125.011 116.527" fill="white"/>
<path d="M122.275 107.843C122.46 107.271 125.794 101.411 126.736 99.9244C127.677 98.4375 131.883 97.0914 133.51 96.194C135.138 95.2965 135.27 93.9328 136.15 94.9094C137.029 95.886 136.15 98.112 131.275 100.479C133.007 100.574 134.743 100.574 136.475 100.479C137.777 100.285 138.939 99.1062 139.519 99.9244C140.1 100.743 140.214 102.212 137.311 103.109C135.93 103.61 134.484 103.906 133.018 103.989C134.438 104.293 135.835 104.698 137.197 105.203C137.663 105.546 138.358 106.347 139.053 106.47C139.748 106.593 140.505 107.35 139.229 108.23C138.777 108.48 138.27 108.616 137.753 108.625C137.236 108.634 136.725 108.517 136.264 108.283C136.264 108.283 139.634 109.91 138.587 110.922C137.54 111.934 134.188 111.732 134.188 111.732C134.188 111.732 129.217 117.794 125.011 116.527" stroke="#263238" stroke-linecap="round" stroke-linejoin="round"/>
<path d="M128.233 99.9164C128.517 99.9824 128.778 100.126 128.986 100.331C129.194 100.536 129.342 100.794 129.412 101.078C129.702 102.116 130.556 102.178 131.075 103.339C131.594 104.5 131.444 106.295 131.955 106.911C132.465 107.527 131.955 110.122 131.955 110.122" stroke="#263238" stroke-linecap="round" stroke-linejoin="round"/>
<path d="M84.8124 116.703C82.6569 113.958 77.8179 115.199 77.8179 115.199" stroke="white" stroke-linecap="round" stroke-linejoin="round"/>
<path d="M75.1782 110.14C75.1782 110.14 80.158 110.87 81.6273 115.014" stroke="white" stroke-linecap="round" stroke-linejoin="round"/>
<path d="M83.9507 136.376C83.9507 136.376 79.0941 140.133 71.7036 134.739" stroke="white" stroke-linecap="round" stroke-linejoin="round"/>
<path d="M77.8179 137.511C77.8179 137.511 75.3544 140.916 69.354 140.872" stroke="white" stroke-linecap="round" stroke-linejoin="round"/>
<path d="M108.683 180.35C108.683 180.35 95.9783 190.477 83.0713 189.148" stroke="white" stroke-linecap="round" stroke-linejoin="round"/>
<path d="M74.3428 158.099C74.3428 158.099 94.0596 172.563 108.656 173.487" stroke="white" stroke-linecap="round" stroke-linejoin="round"/>
<path d="M74.8594 265.173C78.2511 263.292 82.2388 262.794 85.9891 263.783C92.4206 265.402 109.128 289.298 111.451 291.629C113.774 293.961 118.12 295.149 122.123 299.363C128.458 305.97 137.67 311.812 138.602 311.812C139.535 311.812 140.283 311.232 141.444 311.003C142.606 310.774 151.597 309.956 151.597 309.956C151.597 309.956 154.615 310.625 151.597 311.918C148.58 313.211 148.808 314.364 148.808 314.364C148.808 314.364 148.201 315.341 149.415 316.273C150.63 317.206 151.342 316.695 153.075 319.15C154.809 321.605 150.63 320.215 150.63 320.215C150.63 320.215 151.553 322.854 149.697 322.59C147.84 322.326 149.468 325.168 146.45 324.781C143.433 324.394 136.975 320.32 135.356 316.053C135.356 316.053 109.014 303.463 105.072 300.216C101.131 296.97 84.5374 279.558 83.4024 279.329" fill="#263238"/>
<path d="M143.775 288.753H163.131C163.569 288.753 163.99 288.927 164.3 289.237C164.611 289.548 164.785 289.968 164.785 290.407V304.22H142.121V290.407C142.121 289.968 142.295 289.548 142.605 289.237C142.915 288.927 143.336 288.753 143.775 288.753Z" fill="#F4B545"/>
<path opacity="0.3" d="M143.775 288.753H163.131C163.569 288.753 163.99 288.927 164.3 289.237C164.611 289.548 164.785 289.968 164.785 290.407V304.22H142.121V290.407C142.121 289.968 142.295 289.548 142.605 289.237C142.915 288.927 143.336 288.753 143.775 288.753Z" fill="black" fill-opacity="0.7"/>
<path opacity="0.3" d="M163.527 290.214H157.958V301.353H163.527V290.214Z" fill="white" fill-opacity="0.7"/>
<path d="M143.775 288.753H163.131C163.569 288.753 163.99 288.927 164.3 289.237C164.611 289.548 164.785 289.968 164.785 290.407V304.22H142.121V290.407C142.121 289.968 142.295 289.548 142.605 289.237C142.915 288.927 143.336 288.753 143.775 288.753V288.753Z" stroke="#263238" stroke-linecap="round" stroke-linejoin="round"/>
<path d="M177.207 288.753H196.563C197.002 288.753 197.423 288.927 197.733 289.237C198.043 289.548 198.217 289.968 198.217 290.407V304.22H175.553V290.407C175.553 290.19 175.596 289.975 175.679 289.774C175.762 289.573 175.884 289.391 176.038 289.237C176.191 289.084 176.374 288.962 176.574 288.879C176.775 288.796 176.99 288.753 177.207 288.753Z" fill="#F4B545"/>
<path opacity="0.3" d="M177.207 288.753H196.563C197.002 288.753 197.423 288.927 197.733 289.237C198.043 289.548 198.217 289.968 198.217 290.407V304.22H175.553V290.407C175.553 290.19 175.596 289.975 175.679 289.774C175.762 289.573 175.884 289.391 176.038 289.237C176.191 289.084 176.374 288.962 176.574 288.879C176.775 288.796 176.99 288.753 177.207 288.753Z" fill="black" fill-opacity="0.7"/>
<path opacity="0.3" d="M196.59 290.214H193.229V301.353H196.59V290.214Z" fill="white" fill-opacity="0.7"/>
<path d="M177.207 288.753H196.563C197.002 288.753 197.423 288.927 197.733 289.237C198.043 289.548 198.217 289.968 198.217 290.407V304.22H175.553V290.407C175.553 290.19 175.596 289.975 175.679 289.774C175.762 289.573 175.884 289.391 176.038 289.237C176.191 289.084 176.374 288.962 176.574 288.879C176.775 288.796 176.99 288.753 177.207 288.753V288.753Z" stroke="#263238" stroke-linecap="round" stroke-linejoin="round"/>
<path d="M170.17 288.753H189.526C189.964 288.753 190.385 288.927 190.695 289.237C191.006 289.548 191.18 289.968 191.18 290.407V304.22H168.516V290.407C168.516 290.19 168.558 289.975 168.642 289.774C168.725 289.573 168.846 289.391 169 289.237C169.154 289.084 169.336 288.962 169.537 288.879C169.737 288.796 169.952 288.753 170.17 288.753Z" fill="#F4B545" stroke="#263238" stroke-linecap="round" stroke-linejoin="round"/>
<path d="M203.602 288.753H222.958C223.397 288.753 223.818 288.927 224.128 289.237C224.438 289.548 224.612 289.968 224.612 290.407V304.22H201.948V290.407C201.948 289.968 202.122 289.548 202.433 289.237C202.743 288.927 203.164 288.753 203.602 288.753Z" fill="#F4B545" stroke="#263238" stroke-linecap="round" stroke-linejoin="round"/>
<path opacity="0.3" d="M189.922 290.213H184.353V301.351H189.922V290.213Z" fill="white" fill-opacity="0.7"/>
<path opacity="0.3" d="M222.986 290.213H217.417V301.351H222.986V290.213Z" fill="white" fill-opacity="0.7"/>
<path d="M234.475 301V364.514H132.143V301C132.143 299.938 132.565 298.92 133.316 298.169C134.066 297.419 135.085 296.997 136.146 296.997H230.472C231.534 296.997 232.552 297.419 233.303 298.169C234.053 298.92 234.475 299.938 234.475 301Z" fill="#F4B545"/>
<path opacity="0.3" d="M234.475 301V364.514H132.143V301C132.143 299.938 132.565 298.92 133.316 298.169C134.066 297.419 135.085 296.997 136.146 296.997H230.472C231.534 296.997 232.552 297.419 233.303 298.169C234.053 298.92 234.475 299.938 234.475 301Z" fill="black" fill-opacity="0.7"/>
<path d="M234.475 301V364.514H132.143V301C132.143 299.938 132.565 298.92 133.316 298.169C134.066 297.419 135.085 296.997 136.146 296.997H230.472C231.534 296.997 232.552 297.419 233.303 298.169C234.053 298.92 234.475 299.938 234.475 301V301Z" stroke="#263238" stroke-linecap="round" stroke-linejoin="round"/>
<path d="M234.475 301V364.514H158.538V301C158.538 299.938 158.96 298.92 159.711 298.169C160.461 297.419 161.48 296.997 162.541 296.997H230.472C231.534 296.997 232.552 297.419 233.303 298.169C234.054 298.92 234.475 299.938 234.475 301Z" fill="#F4B545" stroke="#263238" stroke-linecap="round" stroke-linejoin="round"/>
<path opacity="0.3" d="M229.337 303.261H164.424C163.985 303.261 163.565 303.087 163.254 302.777C162.944 302.466 162.77 302.046 162.77 301.607C162.765 301.387 162.805 301.168 162.886 300.963C162.967 300.758 163.088 300.572 163.242 300.415C163.396 300.257 163.58 300.132 163.783 300.047C163.986 299.962 164.204 299.918 164.424 299.918H229.337C229.776 299.918 230.197 300.092 230.507 300.402C230.817 300.712 230.991 301.133 230.991 301.572C230.996 301.792 230.957 302.011 230.876 302.216C230.795 302.42 230.673 302.607 230.519 302.764C230.365 302.922 230.181 303.047 229.978 303.132C229.775 303.217 229.557 303.261 229.337 303.261Z" fill="white" fill-opacity="0.7"/>
<path d="M109.171 364.514C103.892 364.514 96.4755 361.118 87.9325 357.528C79.0727 353.798 68.9811 349.856 58.74 349.267C54.9216 349.047 57.2355 364.514 57.2355 364.514H48.8772C48.8772 364.514 40.6245 353.499 39.6655 343.636C39.6655 343.636 46.405 339.474 48.0238 339.237C48.582 339.179 49.1431 339.152 49.7043 339.158C51.5167 339.158 53.9362 339.237 53.9362 339.237C53.5491 339.008 47.3816 335.295 43.9766 331.521C41.17 328.406 39.8855 323.488 39.7887 320.549C39.8975 318.604 40.1119 316.665 40.431 314.743L84.3516 315.473C84.3516 315.473 84.8267 315.807 85.6713 316.432C90.7655 320.145 109.383 333.976 118.691 344.401C121.7 347.771 123.732 350.78 124.032 352.98C125.43 363.124 117.134 364.514 109.171 364.514Z" fill="#757575" stroke="#263238" stroke-linecap="round" stroke-linejoin="round"/>
<path d="M118.7 344.384L97.3378 349.267C93.6753 351.362 90.471 354.172 87.9149 357.529C79.0551 353.798 68.9636 349.857 58.7224 349.267C54.904 349.047 57.2179 364.514 57.2179 364.514H48.8596C48.8596 364.514 40.6245 353.499 39.6655 343.636C39.6655 343.636 47.4431 354.722 49.3436 360.353C49.3436 360.353 52.3613 349.936 57.2619 345.757C55.0485 343.264 52.5335 341.056 49.7747 339.184C51.5871 339.184 54.0066 339.263 54.0066 339.263C53.6195 339.035 47.4519 335.322 44.047 331.547C41.2404 328.433 40.1054 323.506 39.8591 320.576C39.7359 319.133 39.9119 314.769 39.9119 314.769C39.9119 314.769 72.6676 319.441 85.7417 316.459C90.7743 320.154 109.391 333.958 118.7 344.384Z" fill="#263238"/>
<path d="M84.3599 343.636C84.3599 343.636 101.763 352.355 106.408 355.768C111.054 359.182 112.435 358.258 112.435 358.258" stroke="#263238" stroke-linecap="round" stroke-linejoin="round"/>
<path d="M43.9854 342.712C43.9854 342.712 48.1645 349.091 48.3845 351" stroke="#263238" stroke-linecap="round" stroke-linejoin="round"/>
<path d="M113.984 220.276C113.984 220.276 123.249 216.247 122.369 233.386C121.489 250.525 124.63 251.404 124.63 251.404C124.63 251.404 101.315 260.977 95.3937 252.794C89.4726 244.612 95.0946 222.221 113.984 220.276Z" fill="#263238"/>
<path d="M112.69 251.404C112.69 251.404 103.1 255.926 102.229 260.106C101.358 264.285 89.3486 257.994 89.3486 257.994L98.0501 245.483L112.69 251.404Z" fill="white" stroke="#263238" stroke-linecap="round" stroke-linejoin="round"/>
<path d="M49.8087 297.278C27.8132 325.292 45.6648 338.806 70.5989 336.571L65.6015 344.489L78.1478 346.663C78.1478 346.663 87.7642 340.381 100.874 333.668C123.186 322.23 132.204 322.916 129.908 311.47C127.611 300.023 100.266 292.598 72.8512 304.66C72.8249 304.651 57.9383 286.967 49.8087 297.278Z" fill="#757575" stroke="#263238" stroke-linecap="round" stroke-linejoin="round"/>
<path d="M57.4823 358.259C57.4823 358.259 63.21 342.422 65.6031 341.542C67.9962 340.662 77.0407 344.093 78.1493 346.645C78.1493 346.645 81.2023 341.964 82.4516 343.953C83.701 345.941 81.8974 349.232 82.4516 351.748C83.0059 354.264 89.1911 357.783 91.6634 358.25C94.1357 358.716 95.5434 360.106 95.5434 361.496V364.514H57.4823C57.06 363.525 56.8423 362.461 56.8423 361.386C56.8423 360.311 57.06 359.247 57.4823 358.259Z" fill="white" stroke="#263238" stroke-linecap="round" stroke-linejoin="round"/>
<path d="M82.4513 349.267C82.4513 349.267 77.4099 351.756 75.5711 351.026C73.7323 350.296 76.5125 355.205 77.2076 355.672C77.9026 356.138 82.4865 354.044 82.4865 354.044" stroke="#263238" stroke-linecap="round" stroke-linejoin="round"/>
<path d="M62.2422 346.654C62.2422 346.654 69.0872 346.786 71.1724 349.293" stroke="#263238" stroke-linecap="round" stroke-linejoin="round"/>
<path d="M57.481 358.259C57.481 358.259 68.3907 360.81 69.3145 360.81C70.8149 360.513 72.2868 360.086 73.7136 359.535C73.7136 359.535 76.705 361.039 78.6934 361.972C80.6818 362.904 93.6504 361.972 93.6504 361.972" stroke="#263238" stroke-linecap="round" stroke-linejoin="round"/>
<path d="M70.6001 336.589C81.0172 335.463 101.253 322.626 108.292 318.166C115.33 313.705 117.09 314.875 117.09 314.875" stroke="#263238" stroke-linecap="round" stroke-linejoin="round"/>
<path d="M39.8496 314.725L41.5125 302.099L45.5245 299.073C52.0263 283.297 81.4827 253.832 89.5155 253.929C101.578 254.07 103.707 266.73 105.194 280.587C106.681 294.445 87.8878 292.36 87.8878 292.36V295.835L77.198 301.369L83.6735 301.167C83.6735 301.167 65.0477 319.273 39.8496 314.725Z" fill="#F4B545" stroke="#263238" stroke-linecap="round" stroke-linejoin="round"/>
<path d="M92.0584 229.532C94.5835 221.614 106.136 219.502 110.288 220.795C113.697 222.126 116.491 224.675 118.127 227.948C119.183 230.227 116.975 234.257 118.55 236.606C120.802 239.975 120.609 247.084 119.799 251.563C119.359 253.938 109.479 255.346 101.402 249.803C92.727 243.803 89.6125 237.151 92.0584 229.532Z" fill="white" stroke="#263238" stroke-linecap="round" stroke-linejoin="round"/>
<path d="M103.733 218.429C103.733 218.429 113.904 216.774 113.974 219.388C114.423 236.746 104.015 240.389 104.015 240.389C104.015 240.389 99.7653 237.002 98.8151 239.324C97.8649 241.647 100.311 248.07 103.32 248.202C102.626 249.279 102.247 250.528 102.226 251.809C102.204 253.09 102.54 254.351 103.197 255.451C103.197 255.451 85.9697 258.328 84.5444 250.348C85.2104 247.574 85.6866 244.758 85.9698 241.92C87.0871 230.737 84.4741 223.215 103.733 218.429Z" fill="#263238"/>
<path d="M117.318 236.121C119.439 238.03 120.961 238.03 120.934 238.717C120.855 240.855 118.295 241.919 118.295 241.919" fill="white"/>
<path d="M117.318 236.121C119.439 238.03 120.961 238.03 120.934 238.717C120.855 240.855 118.295 241.919 118.295 241.919" stroke="#263238" stroke-linecap="round" stroke-linejoin="round"/>
<path d="M118.243 245.483C116.745 245.99 115.128 246.03 113.606 245.597" stroke="#263238" stroke-linecap="round" stroke-linejoin="round"/>
<path d="M112.603 225.467C112.603 225.467 119.369 223.505 118.129 234.485C118.129 234.485 120.944 230.658 120.935 226.356C120.935 218.904 110.967 220.399 110.967 220.399L112.269 225.678" fill="#263238"/>
<path d="M118.752 230.843C118.496 230.673 118.208 230.556 117.906 230.5C117.603 230.444 117.293 230.45 116.993 230.518" stroke="#263238" stroke-linecap="round" stroke-linejoin="round"/>
<path d="M114.194 230.72C114.194 230.72 110.561 230.931 108.986 233.359" stroke="#263238" stroke-linecap="round" stroke-linejoin="round"/>
<path d="M113.324 236.5C113.377 237.081 113.13 237.582 112.77 237.618C112.409 237.653 112.075 237.204 112.013 236.623C111.952 236.043 112.207 235.541 112.567 235.506C112.928 235.471 113.271 235.92 113.324 236.5Z" fill="#263238"/>
<path d="M71.1729 339.227C71.1729 339.227 79.2672 340.107 81.0268 343.626" stroke="#263238" stroke-linecap="round" stroke-linejoin="round"/>
<path d="M91.6626 259.868C95.0544 257.986 99.042 257.488 102.792 258.478C109.233 260.105 125.932 283.992 128.254 286.324C130.577 288.655 134.923 289.843 138.927 294.058C145.261 300.665 154.473 306.507 155.406 306.507C156.338 306.507 157.086 305.926 158.247 305.698C159.409 305.469 168.401 304.651 168.401 304.651C168.401 304.651 171.418 305.328 168.401 306.613C165.383 307.897 165.612 309.067 165.612 309.067C165.612 309.067 165.013 310.035 166.219 310.968C167.424 311.9 168.145 311.39 169.879 313.845C171.612 316.299 167.433 314.909 167.433 314.909C167.433 314.909 168.357 317.549 166.5 317.285C164.644 317.021 166.271 319.863 163.254 319.476C160.236 319.088 153.778 315.015 152.159 310.748C152.159 310.748 125.817 298.158 121.876 294.911C117.934 291.664 101.358 274.253 100.188 274.024" fill="white"/>
<path d="M91.6626 259.868C95.0544 257.986 99.042 257.488 102.792 258.478C109.233 260.105 125.932 283.992 128.254 286.324C130.577 288.655 134.923 289.843 138.927 294.058C145.261 300.665 154.473 306.507 155.406 306.507C156.338 306.507 157.086 305.926 158.247 305.698C159.409 305.469 168.401 304.651 168.401 304.651C168.401 304.651 171.418 305.328 168.401 306.613C165.383 307.897 165.612 309.067 165.612 309.067C165.612 309.067 165.013 310.035 166.219 310.968C167.424 311.9 168.145 311.39 169.879 313.845C171.612 316.299 167.433 314.909 167.433 314.909C167.433 314.909 168.357 317.549 166.5 317.285C164.644 317.021 166.271 319.863 163.254 319.476C160.236 319.088 153.778 315.015 152.159 310.748C152.159 310.748 125.817 298.158 121.876 294.911C117.934 291.664 101.358 274.253 100.188 274.024" stroke="#263238" stroke-linecap="round" stroke-linejoin="round"/>
<path d="M87.8804 257.316C87.8804 257.316 100.867 253.841 105.398 256.392C109.929 258.944 118.516 270.777 118.516 270.777C118.516 270.777 108.046 280.148 104.808 279.294C101.57 278.441 91.6636 277.042 91.6636 277.042" fill="#F4B545"/>
<path d="M87.8804 257.316C87.8804 257.316 100.867 253.841 105.398 256.392C109.929 258.944 118.516 270.777 118.516 270.777C118.516 270.777 108.046 280.148 104.808 279.294C101.57 278.441 91.6636 277.042 91.6636 277.042" stroke="#263238" stroke-linecap="round" stroke-linejoin="round"/>
<path d="M99.14 278.186C99.14 278.186 94.433 280.773 92.6997 280.773" stroke="#263238" stroke-linecap="round" stroke-linejoin="round"/>
<path d="M91.6626 265.208C92.0585 265.903 91.9265 273.514 100.188 275.881" stroke="#263238" stroke-linecap="round" stroke-linejoin="round"/>
<path d="M47.5059 299.32C47.5059 299.32 65.1023 302.337 71.173 296.997" stroke="#263238" stroke-linecap="round" stroke-linejoin="round"/>
<path d="M77.1909 301.369C77.1909 301.369 72.7918 300.595 71.173 302.856C69.5541 305.117 60.7383 307.255 60.7383 307.255" stroke="#263238" stroke-linecap="round" stroke-linejoin="round"/>
<path d="M41.822 318.164C41.822 318.164 39.2793 329.127 50.1275 334.001" stroke="#263238" stroke-linecap="round" stroke-linejoin="round"/>
<path d="M47.5059 318.922C47.5059 318.922 47.5674 324.324 49.2655 327.28L54.6588 329.04L60.6944 325.679C60.6944 325.679 59.4098 318.772 59.2954 317.373" stroke="#263238" stroke-linecap="round" stroke-linejoin="round"/>
</svg>
