<svg width="107" height="106" viewBox="0 0 107 106" fill="none" xmlns="http://www.w3.org/2000/svg">
<g filter="url(#filter0_dd)">
<rect x="18.9382" y="12" width="70" height="70" rx="10" fill="#EB5757"/>
<rect x="18.9382" y="12" width="70" height="70" rx="10" stroke="white" stroke-width="4"/>
</g>
<path d="M56.023 47L66.2769 34.7773C66.4488 34.5742 66.3043 34.2656 66.0386 34.2656H62.9215C62.7379 34.2656 62.5621 34.3477 62.441 34.4883L53.984 44.5703L45.5269 34.4883C45.4097 34.3477 45.234 34.2656 45.0465 34.2656H41.9293C41.6636 34.2656 41.5191 34.5742 41.691 34.7773L51.9449 47L41.691 59.2227C41.6525 59.2679 41.6278 59.3233 41.6198 59.3822C41.6119 59.4411 41.621 59.501 41.646 59.5549C41.6711 59.6088 41.7111 59.6544 41.7614 59.6862C41.8116 59.718 41.8698 59.7347 41.9293 59.7344H45.0465C45.23 59.7344 45.4058 59.6523 45.5269 59.5117L53.984 49.4297L62.441 59.5117C62.5582 59.6523 62.734 59.7344 62.9215 59.7344H66.0386C66.3043 59.7344 66.4488 59.4258 66.2769 59.2227L56.023 47Z" fill="white"/>
<defs>
<filter id="filter0_dd" x="0.938232" y="0" width="106" height="106" filterUnits="userSpaceOnUse" color-interpolation-filters="sRGB">
<feFlood flood-opacity="0" result="BackgroundImageFix"/>
<feColorMatrix in="SourceAlpha" type="matrix" values="0 0 0 0 0 0 0 0 0 0 0 0 0 0 0 0 0 0 127 0"/>
<feMorphology radius="4" operator="erode" in="SourceAlpha" result="effect1_dropShadow"/>
<feOffset dy="3"/>
<feGaussianBlur stdDeviation="3"/>
<feColorMatrix type="matrix" values="0 0 0 0 0 0 0 0 0 0 0 0 0 0 0 0 0 0 0.12 0"/>
<feBlend mode="normal" in2="BackgroundImageFix" result="effect1_dropShadow"/>
<feColorMatrix in="SourceAlpha" type="matrix" values="0 0 0 0 0 0 0 0 0 0 0 0 0 0 0 0 0 0 127 0"/>
<feOffset dy="6"/>
<feGaussianBlur stdDeviation="8"/>
<feColorMatrix type="matrix" values="0 0 0 0 0 0 0 0 0 0 0 0 0 0 0 0 0 0 0.08 0"/>
<feBlend mode="normal" in2="effect1_dropShadow" result="effect2_dropShadow"/>
<feBlend mode="normal" in="SourceGraphic" in2="effect2_dropShadow" result="shape"/>
</filter>
</defs>
</svg>
