<svg width="180" height="181" viewBox="0 0 180 181" fill="none" xmlns="http://www.w3.org/2000/svg">
<g clip-path="url(#clip0)">
<path d="M2.87822 176.044C5.79372 178.976 10.2197 179.766 13.96 178.021L115.473 134.073C120.442 131.756 121.603 125.175 117.731 121.281L57.558 60.774C53.6852 56.8797 47.1405 58.0473 44.8366 63.0439L0.912054 164.901C-0.822456 168.662 -0.0372896 173.112 2.87822 176.044Z" fill="#FFE266"/>
<path d="M87.4412 124.446L12.8194 156.751C10.1821 157.981 7.08441 157.493 4.94433 155.55L0.912054 164.901C-0.822456 168.662 -0.0372896 173.112 2.87822 176.044C5.79372 178.976 10.2197 179.765 13.96 178.021L114.5 134.495C112.184 133.561 87.8179 124.27 87.4412 124.446Z" fill="#EFAA66"/>
<path d="M118.433 129.945C125.37 122.97 115.285 101.521 95.9078 82.0358C76.5307 62.551 55.1993 52.4099 48.2628 59.385C41.3263 66.36 51.4114 87.8099 70.7885 107.295C90.1656 126.779 111.497 136.921 118.433 129.945Z" fill="#FFE266"/>
<path d="M100.855 120.957C105.405 116.382 98.0347 101.552 84.3927 87.8343C70.7507 74.1166 56.003 66.7053 51.4528 71.2809C46.9026 75.8564 54.2729 90.686 67.9148 104.404C81.5568 118.122 96.3045 125.533 100.855 120.957Z" fill="#EFAA66"/>
<path d="M112.191 135.783C101.133 135.783 84.0085 125.705 68.2546 109.863C53.9495 95.4783 44.1469 79.6363 42.6736 68.5194C42.4106 66.5329 43.798 64.7082 45.7735 64.4437C47.7472 64.1799 49.5637 65.5742 49.8267 67.5608C51.082 77.03 60.3185 91.6207 73.3579 104.732C90.0185 121.485 105.382 128.79 112.602 128.518C114.591 128.445 116.271 129.998 116.35 132C116.429 134.002 114.879 135.69 112.888 135.77C112.659 135.778 112.425 135.783 112.191 135.783Z" fill="#D0844B"/>
<path d="M73.6114 79.7694C72.7646 78.9178 72.1111 77.8478 71.7481 76.6113L68.4115 65.2546C67.1511 60.9659 68.2885 56.3709 71.379 53.2633L77.4445 47.164C80.5354 44.056 85.105 42.9127 89.37 44.1801L101.519 47.6281L97.4215 32.9278C96.2604 28.9762 98.5051 24.8265 102.435 23.6589C106.365 22.4913 110.492 24.7485 111.653 28.7001L114.99 40.0568C116.25 44.3459 115.113 48.9408 112.022 52.0481L105.957 58.1474C102.866 61.2551 98.2965 62.3983 94.0315 61.1313L81.7583 57.1068L85.9796 72.3835C87.1408 76.3352 84.896 80.4849 80.9662 81.6525C78.2654 82.4547 75.4715 81.6398 73.6114 79.7694Z" fill="#CAB4EF"/>
<path d="M101.519 47.6281L89.3702 44.1801C85.7041 43.0909 81.8144 43.7839 78.8311 45.9729C79.6664 49.3316 80.729 53.7996 81.7581 57.1065L94.0314 61.131C97.8713 62.2718 101.957 61.4579 104.989 59.0168C103.915 55.6366 102.541 51.0243 101.519 47.6281Z" fill="#A183E2"/>
<path d="M120.602 74.459C121.449 75.3106 122.513 75.9677 123.742 76.3327L135.036 79.6878C139.301 80.9548 143.871 79.8115 146.961 76.7039L153.027 70.6046C156.118 67.4966 157.255 62.9016 155.994 58.6129L152.565 46.3963L167.184 50.5163C171.114 51.6839 175.241 49.4267 176.403 45.4751C177.564 41.5234 175.319 37.3737 171.389 36.2061L160.095 32.8509C155.83 31.5839 151.26 32.7276 148.17 35.8349L142.105 41.9341C139.014 45.0418 137.877 49.6368 139.137 53.9255L143.139 66.2669L127.947 62.0221C124.017 60.8545 119.89 63.1117 118.729 67.0633C117.931 69.7792 118.742 72.5886 120.602 74.459Z" fill="#F7C4DB"/>
<path d="M155.994 58.6129L152.565 46.3963C149.03 45.6303 144.086 44.6503 140.558 43.8546C138.669 46.7772 138.116 50.4517 139.137 53.9258L143.139 66.2673C146.798 67.1758 150.67 67.8024 154.183 69.249C156.382 66.244 157.082 62.3149 155.994 58.6129Z" fill="#EF8BBD"/>
<path d="M137.875 13.1065C135.523 15.4722 131.708 15.4722 129.355 13.1065C127.003 10.7408 127.003 6.90496 129.355 4.53928C131.708 2.17359 135.523 2.17359 137.875 4.53928C140.228 6.90532 140.228 10.7408 137.875 13.1065Z" fill="#FFA585"/>
<path d="M146.966 113.749C150.293 113.749 152.99 111.037 152.99 107.691C152.99 104.346 150.293 101.633 146.966 101.633C143.639 101.633 140.941 104.346 140.941 107.691C140.941 111.037 143.639 113.749 146.966 113.749Z" fill="#78EAC4"/>
<path d="M114.007 113.075C111.654 115.441 107.84 115.441 105.487 113.075C103.135 110.709 103.135 106.874 105.487 104.508C107.84 102.142 111.654 102.142 114.007 104.508C116.36 106.874 116.36 110.709 114.007 113.075Z" fill="#78EAC4"/>
<path d="M114.007 113.075C111.654 115.441 107.84 115.441 105.487 113.075C103.135 110.709 103.135 106.874 105.487 104.508C107.84 102.142 111.654 102.142 114.007 104.508C116.36 106.874 116.36 110.709 114.007 113.075Z" fill="#8BB6EF"/>
<path d="M32.8026 130.835C32.3267 130.835 31.8424 130.74 31.3777 130.538C29.5472 129.746 28.7021 127.612 29.4905 125.771L34.0601 115.099C34.8481 113.258 36.9713 112.407 38.801 113.201C40.6315 113.994 41.4766 116.128 40.6882 117.968L36.1186 128.641C35.5308 130.013 34.2005 130.835 32.8026 130.835Z" fill="white"/>
<path d="M42.4852 108.22C42.0093 108.22 41.5254 108.125 41.06 107.924C39.2298 107.131 38.3848 104.997 39.1732 103.156L40.566 99.9027C41.354 98.0628 43.4757 97.2116 45.3073 98.0055C47.1374 98.7979 47.9825 100.932 47.1944 102.773L45.8016 106.026C45.2135 107.399 43.8827 108.22 42.4852 108.22Z" fill="white"/>
<path d="M70.8034 2.94974L73.7672 11.3305C73.8942 11.6893 74.1454 11.9738 74.4625 12.1175L81.8671 15.4723C82.9132 15.9461 82.9132 17.622 81.8671 18.0963L74.4625 21.451C74.1454 21.5947 73.8942 21.8792 73.7672 22.2377L70.8034 30.6184C70.3848 31.8023 68.9036 31.8023 68.485 30.6184L65.5212 22.2377C65.3942 21.8788 65.143 21.5944 64.8258 21.451L57.4213 18.0963C56.3752 17.6224 56.3752 15.9465 57.4213 15.4723L64.8258 12.1175C65.143 11.9738 65.3942 11.6893 65.5212 11.3305L68.485 2.94974C68.9036 1.76545 70.3848 1.76545 70.8034 2.94974Z" fill="#F7C4DB"/>
<path d="M171.212 78.2909L173.41 84.5073C173.504 84.7736 173.691 84.9844 173.926 85.0911L179.418 87.5794C180.195 87.931 180.195 89.1741 179.418 89.5257L173.926 92.014C173.691 92.1207 173.504 92.3315 173.41 92.5978L171.212 98.8142C170.901 99.6927 169.803 99.6927 169.492 98.8142L167.293 92.5978C167.199 92.3315 167.013 92.1207 166.778 92.014L161.285 89.5257C160.509 89.1741 160.509 87.931 161.285 87.5794L166.778 85.0911C167.013 84.9844 167.199 84.7736 167.293 84.5073L169.492 78.2909C169.803 77.4128 170.901 77.4128 171.212 78.2909Z" fill="#CAB4EF"/>
<path d="M130.331 31.4768C131.873 31.4768 133.123 30.22 133.123 28.6696C133.123 27.1192 131.873 25.8623 130.331 25.8623C128.789 25.8623 127.539 27.1192 127.539 28.6696C127.539 30.22 128.789 31.4768 130.331 31.4768Z" fill="#78EAC4"/>
<path d="M172.602 11.2958C172.95 8.45386 170.94 5.86697 168.113 5.51779C165.287 5.16861 162.714 7.18936 162.367 10.0313C162.02 12.8732 164.03 15.4601 166.856 15.8093C169.682 16.1584 172.255 14.1377 172.602 11.2958Z" fill="#8BB6EF"/>
</g>
<defs>
<clipPath id="clip0">
<rect width="180" height="181" fill="white"/>
</clipPath>
</defs>
</svg>
