<svg width="59" height="59" viewBox="0 0 59 59" fill="none" xmlns="http://www.w3.org/2000/svg">
<path d="M36.5869 44.4632C34.5991 46.111 32.0812 47.0156 29.5 47.0156C26.9187 47.0156 24.4009 46.1053 22.4131 44.4632C20.858 43.174 19.6812 41.4875 19.0079 39.583H13.3672V51.1641H45.6328V39.583H39.9921C39.3237 41.4729 38.1483 43.1726 36.5869 44.4632Z" fill="#E1E8FF"/>
<path d="M18.4375 28.8662H40.5625C40.816 28.8662 41.0234 28.6588 41.0234 28.4053V25.6396C41.0234 25.3861 40.816 25.1787 40.5625 25.1787H18.4375C18.184 25.1787 17.9766 25.3861 17.9766 25.6396V28.4053C17.9766 28.6588 18.184 28.8662 18.4375 28.8662Z" fill="#485ABA"/>
<path d="M47.9375 3.6875H11.0625C10.0427 3.6875 9.21875 4.51143 9.21875 5.53125V53.4688C9.21875 54.4886 10.0427 55.3125 11.0625 55.3125H47.9375C48.9573 55.3125 49.7812 54.4886 49.7812 53.4688V5.53125C49.7812 4.51143 48.9573 3.6875 47.9375 3.6875ZM45.6328 51.1641H13.3672V39.583H19.0079C19.6763 41.4729 20.8517 43.1726 22.4131 44.4632C24.4009 46.1053 26.9188 47.0156 29.5 47.0156C32.0812 47.0156 34.5991 46.111 36.5869 44.4632C38.1483 43.1726 39.3237 41.4729 39.9921 39.583H45.6328V51.1641ZM45.6328 35.9531H37.0824L36.7828 37.3763C36.0914 40.8218 33.0262 43.3281 29.5 43.3281C25.9738 43.3281 22.9086 40.8218 22.2114 37.3763L21.9118 35.9531H13.3672V7.83594H45.6328V35.9531Z" fill="#485ABA"/>
<path d="M18.4375 19.6475H40.5625C40.816 19.6475 41.0234 19.44 41.0234 19.1865V16.4209C41.0234 16.1674 40.816 15.96 40.5625 15.96H18.4375C18.184 15.96 17.9766 16.1674 17.9766 16.4209V19.1865C17.9766 19.44 18.184 19.6475 18.4375 19.6475Z" fill="#485ABA"/>
</svg>
