<svg width="63" height="63" viewBox="0 0 63 63" fill="none" xmlns="http://www.w3.org/2000/svg">
<path d="M56.1049 17.4644V17.4952L51.4045 53.2157C51.343 53.7079 50.9185 54.077 50.4263 54.077H12.5832C12.0849 54.077 11.6665 53.7017 11.5988 53.2157L6.89844 17.4952V17.4583V17.5567L11.5988 53.2772C11.6665 53.7632 12.0849 54.1385 12.5832 54.1385H50.4263C50.9185 54.1385 51.343 53.7694 51.4045 53.2772L56.1049 17.5567C56.111 17.5259 56.111 17.4952 56.1049 17.4644Z" fill="#E1E8FF"/>
<path d="M47.595 49.87L50.9111 24.6823L42.3102 29.9794L31.5005 15.5583L20.6908 29.9794L12.0898 24.6823L15.3998 49.87H47.595ZM24.5729 38.242C24.5729 34.4214 27.6799 31.3145 31.5005 31.3145C35.3211 31.3145 38.428 34.4214 38.428 38.242V38.3036C38.428 42.1242 35.3211 45.2311 31.5005 45.2311C27.6799 45.2311 24.5729 42.1242 24.5729 38.3036V38.242Z" fill="#E1E8FF"/>
<path d="M31.4998 45.1705C35.3082 45.1705 38.409 42.082 38.4274 38.2737V38.243C38.4274 34.4224 35.3205 31.3154 31.4998 31.3154C27.6792 31.3154 24.5723 34.4224 24.5723 38.243V38.2737C24.5907 42.082 27.6915 45.1705 31.4998 45.1705ZM31.4998 35.2714C33.1364 35.2714 34.4653 36.6003 34.4653 38.243C34.4653 39.8795 33.1364 41.2146 31.4998 41.2146C29.8633 41.2146 28.5344 39.8856 28.5344 38.243C28.5344 36.6064 29.8633 35.2714 31.4998 35.2714Z" fill="#485ABA"/>
<path d="M11.5959 53.2176C11.6636 53.7036 12.082 54.0789 12.5803 54.0789H50.4234C50.9155 54.0789 51.3401 53.7098 51.4016 53.2176L56.102 17.4971V17.4663C56.1204 17.0725 55.6898 16.8018 55.3452 17.011L43.3728 24.3877L31.8925 9.07449C31.8463 9.01286 31.7864 8.96283 31.7175 8.92837C31.6486 8.89392 31.5727 8.87598 31.4957 8.87598C31.4187 8.87598 31.3427 8.89392 31.2738 8.92837C31.2049 8.96283 31.145 9.01286 31.0988 9.07449L19.6247 24.3877L7.64611 17.011C7.30773 16.8018 6.87092 17.0664 6.89553 17.4601V17.4971L11.5959 53.2176ZM20.6891 29.9802L31.4987 15.5591L42.3084 29.9802L50.9094 24.683L47.5933 49.8707H15.3981L12.0881 24.683L20.6891 29.9802Z" fill="#485ABA"/>
</svg>
