<svg width="88" height="88" viewBox="0 0 88 88" fill="none" xmlns="http://www.w3.org/2000/svg">
<path d="M62.9551 34.6421L72.8207 65.5383L47.8232 62.3002L62.9551 34.6421Z" fill="#F79329"/>
<path d="M72.8222 66.3481C72.7878 66.3481 72.7534 66.3481 72.7191 66.3413L47.7147 63.1031C47.4466 63.0688 47.2197 62.9038 47.0959 62.6631C46.9722 62.4225 46.9791 62.1406 47.1028 61.9069L62.2416 34.2488C62.3997 33.9669 62.7159 33.8019 63.0322 33.8294C63.3553 33.8569 63.6303 34.0769 63.7266 34.3863L73.5166 65.0625C73.6128 65.1931 73.6678 65.3581 73.6678 65.53C73.6678 65.9769 73.3034 66.3413 72.8566 66.3413C72.8566 66.3481 72.8359 66.3481 72.8222 66.3481ZM49.0966 61.6456L71.6603 64.5675L62.7641 36.6894L49.0966 61.6456Z" fill="#F79329"/>
<path d="M27.6371 24.0023C27.6371 24.9978 27.2416 25.9526 26.5377 26.6566C25.8337 27.3606 24.8789 27.756 23.8834 27.756C21.814 27.756 20.1296 26.0717 20.1296 24.0023C20.1296 21.926 21.8071 20.2485 23.8834 20.2485C25.9596 20.2485 27.6371 21.926 27.6371 24.0023Z" fill="#F79329"/>
<path d="M23.8795 28.5619C22.6693 28.5601 21.5093 28.0785 20.6536 27.2228C19.7978 26.3671 19.3163 25.207 19.3145 23.9969C19.3163 22.7867 19.7978 21.6267 20.6536 20.771C21.5093 19.9152 22.6693 19.4337 23.8795 19.4319C25.0896 19.4337 26.2497 19.9152 27.1054 20.771C27.9611 21.6267 28.4427 22.7867 28.4445 23.9969C28.4427 25.207 27.9611 26.3671 27.1054 27.2228C26.2497 28.0785 25.0896 28.5601 23.8795 28.5619ZM23.8795 21.0613C22.257 21.0613 20.937 22.3813 20.937 24.0038C20.937 25.6263 22.257 26.9463 23.8795 26.9463C25.502 26.9463 26.8289 25.6263 26.8289 24.0038C26.8289 22.3813 25.502 21.0613 23.8795 21.0613Z" fill="#F79329"/>
<path d="M64.3435 20.2541C66.4128 20.3779 67.9941 22.1585 67.8703 24.2279C67.7535 26.2972 65.966 27.8716 63.9035 27.7547C63.4112 27.7265 62.9293 27.6014 62.4855 27.3866C62.0416 27.1719 61.6445 26.8716 61.3169 26.5031C60.9893 26.1346 60.7376 25.7051 60.5762 25.2392C60.4149 24.7732 60.347 24.2801 60.3766 23.7879C60.5003 21.7116 62.2741 20.1304 64.3435 20.2541Z" fill="#F79329"/>
<path d="M64.1201 28.565L63.852 28.5581C62.6351 28.4894 61.5145 27.9463 60.7101 27.0388C60.3107 26.5916 60.0036 26.0698 59.8065 25.5034C59.6095 24.9371 59.5264 24.3374 59.562 23.7388C59.6315 22.5767 60.1419 21.485 60.989 20.6865C61.8361 19.8879 62.956 19.4428 64.1201 19.4419L64.3883 19.4488C66.9045 19.6 68.8295 21.7725 68.6783 24.2819C68.6068 25.442 68.0954 26.5312 67.2483 27.3271C66.4013 28.1231 65.2825 28.5658 64.1201 28.565ZM64.2783 21.0575C62.5595 21.0575 61.2739 22.2744 61.1845 23.8281C61.1364 24.6119 61.3976 25.3681 61.9201 25.9594C62.4426 26.5506 63.1576 26.8944 63.9483 26.9425L64.1201 26.9494C65.6739 26.9494 66.9664 25.7325 67.0558 24.1788C67.152 22.5563 65.9076 21.1606 64.2851 21.0575H64.2783Z" fill="#F79329"/>
<path d="M25.0482 34.6426L15.1895 65.5388L40.187 62.3007L25.0482 34.6426Z" fill="#F79329"/>
<path d="M15.1876 66.3469C14.9539 66.3469 14.7201 66.2438 14.562 66.0581C14.3833 65.845 14.3283 65.5563 14.4108 65.295L24.2695 34.3988C24.3658 34.0894 24.6408 33.8694 24.9639 33.8419C25.3145 33.8075 25.5964 33.9725 25.7545 34.2613L40.8933 61.9194C41.017 62.1531 41.0239 62.435 40.9001 62.6756C40.7833 62.9163 40.5495 63.0744 40.2814 63.1156L15.2839 66.3538C15.2564 66.3469 15.222 66.3469 15.1876 66.3469ZM25.2458 36.6881L16.3426 64.5731L38.9064 61.6513L25.2458 36.6881Z" fill="#F79329"/>
<path d="M49.6124 19.7748C49.6124 22.8755 47.0961 25.3917 43.9955 25.3917C40.8949 25.3917 38.3717 22.8755 38.3717 19.7748C38.3717 16.6673 40.888 14.158 43.9955 14.158C47.103 14.158 49.6124 16.6673 49.6124 19.7748Z" fill="#FCC21B"/>
<path d="M9.24074 24.0017C9.24074 26.4629 7.24699 28.4567 4.77886 28.4567C2.31761 28.4567 0.32386 26.4629 0.32386 24.0017C0.32386 21.5335 2.31761 19.5398 4.77886 19.5398C7.24699 19.5398 9.24074 21.5335 9.24074 24.0017Z" fill="#FCC21B"/>
<path d="M78.7412 24.0017C78.7412 26.4629 80.7349 28.4567 83.203 28.4567C85.6643 28.4567 87.6649 26.4629 87.6649 24.0017C87.6649 22.8183 87.1948 21.6834 86.3581 20.8466C85.5213 20.0099 84.3864 19.5398 83.203 19.5398C82.0197 19.5398 80.8848 20.0099 80.048 20.8466C79.2112 21.6834 78.7412 22.8183 78.7412 24.0017Z" fill="#FCC21B"/>
<path d="M49.6124 19.7748C49.6124 22.8755 47.0961 25.3917 43.9955 25.3917C40.8949 25.3917 38.3717 22.8755 38.3717 19.7748C38.3717 16.6673 40.888 14.158 43.9955 14.158C47.103 14.158 49.6124 16.6673 49.6124 19.7748Z" fill="#FCC21B"/>
<path d="M9.24074 24.0017C9.24074 26.4629 7.24699 28.4567 4.77886 28.4567C2.31761 28.4567 0.32386 26.4629 0.32386 24.0017C0.32386 21.5335 2.31761 19.5398 4.77886 19.5398C7.24699 19.5398 9.24074 21.5335 9.24074 24.0017Z" fill="#FCC21B"/>
<path d="M78.7412 24.0017C78.7412 26.4629 80.7349 28.4567 83.203 28.4567C85.6643 28.4567 87.6649 26.4629 87.6649 24.0017C87.6649 22.8183 87.1948 21.6834 86.3581 20.8466C85.5213 20.0099 84.3864 19.5398 83.203 19.5398C82.0197 19.5398 80.8848 20.0099 80.048 20.8466C79.2112 21.6834 78.7412 22.8183 78.7412 24.0017Z" fill="#FCC21B"/>
<path d="M82.1646 36.7348C82.0184 36.6697 81.8561 36.6493 81.6983 36.6762C81.5405 36.7031 81.3942 36.7761 81.2777 36.886L59.9927 56.8648L44.8059 34.1842C44.6546 33.9573 44.4071 33.8267 44.1321 33.8267C43.864 33.8267 43.6096 33.9573 43.4584 34.1773L28.2027 56.8648L6.92463 36.8792C6.80822 36.7693 6.66189 36.6962 6.50408 36.6693C6.34626 36.6424 6.18401 36.6628 6.03775 36.7279C5.74213 36.8585 5.54963 37.161 5.56338 37.4842L6.4365 70.1542C6.4365 77.256 22.9778 82.8248 44.0977 82.8248C65.2177 82.8248 81.759 77.256 81.759 70.1748L82.6321 37.4842C82.6459 37.1679 82.4602 36.8654 82.1646 36.7348Z" fill="#FCC21B"/>
<path d="M82.4297 53.6694L82.4365 53.6763L82.0309 66.6357H82.024C79.1365 66.5463 76.8953 63.5763 77.0053 59.9944C77.1153 56.4057 79.5422 53.58 82.4297 53.6694Z" fill="#D7598B"/>
<path d="M5.76277 53.6694L5.75589 53.6763L6.15464 66.6357H6.16839C9.04901 66.5463 11.2971 63.5763 11.1803 59.9944C11.0703 56.4057 8.64339 53.58 5.76277 53.6694Z" fill="#D7598B"/>
<path d="M50.0492 66.3767C50.0492 70.2129 47.3817 73.3273 44.0885 73.3273C40.8023 73.3273 38.1348 70.2129 38.1348 66.3767C38.1348 62.5335 40.8023 59.426 44.0885 59.426C47.3817 59.4192 50.0492 62.5335 50.0492 66.3767Z" fill="#D7598B"/>
<path d="M61.7991 70.2221C61.7097 72.0784 60.3416 73.5152 58.7466 73.4396C57.1584 73.364 55.9416 71.7896 56.0378 69.9402C56.1341 68.0771 57.5022 66.6402 59.0903 66.7227C60.6784 66.7915 61.8884 68.3659 61.7991 70.2221Z" fill="#ED6C30"/>
<path d="M73.7067 68.1857C73.8034 66.3315 72.5908 64.761 70.9983 64.6779C69.4057 64.5948 68.0363 66.0306 67.9395 67.8848C67.8428 69.7389 69.0553 71.3094 70.6479 71.3925C72.2404 71.4756 73.6099 70.0399 73.7067 68.1857Z" fill="#ED6C30"/>
<path d="M26.3691 70.2221C26.4585 72.0784 27.8266 73.5152 29.4216 73.4396C31.0098 73.364 32.2266 71.7896 32.1304 69.9402C32.041 68.0771 30.6729 66.6402 29.0848 66.7227C27.4898 66.7915 26.2729 68.3659 26.3691 70.2221Z" fill="#ED6C30"/>
<path d="M17.5155 71.383C19.1043 71.3001 20.3138 69.7298 20.2171 67.8756C20.1203 66.0214 18.7539 64.5855 17.1652 64.6684C15.5764 64.7513 14.3669 66.3216 14.4636 68.1758C14.5604 70.03 15.9268 71.4659 17.5155 71.383Z" fill="#ED6C30"/>
</svg>
