<svg width="17" height="18" viewBox="0 0 17 18" fill="none" xmlns="http://www.w3.org/2000/svg">
<path d="M2.83337 5.45833V12.5417C2.83337 14.1065 5.37043 15.375 8.50004 15.375C11.6297 15.375 14.1667 14.1065 14.1667 12.5417V5.45833M2.83337 5.45833C2.83337 7.02314 5.37043 8.29167 8.50004 8.29167C11.6297 8.29167 14.1667 7.02314 14.1667 5.45833M2.83337 5.45833C2.83337 3.89353 5.37043 2.625 8.50004 2.625C11.6297 2.625 14.1667 3.89353 14.1667 5.45833M14.1667 9C14.1667 10.5648 11.6297 11.8333 8.50004 11.8333C5.37043 11.8333 2.83337 10.5648 2.83337 9" stroke="#9CA3AF" stroke-width="1.5"/>
</svg>
