<svg width="107" height="107" viewBox="0 0 107 107" fill="none" xmlns="http://www.w3.org/2000/svg">
<g filter="url(#filter0_dd)">
<rect x="18.0715" y="12.2422" width="70" height="70" rx="10" fill="#F2C94C"/>
<rect x="18.0715" y="12.2422" width="70" height="70" rx="10" stroke="white" stroke-width="4"/>
</g>
<path d="M44.3298 36.2322L46.0447 34.5173C46.086 34.4758 46.1148 34.4235 46.1279 34.3665C46.1409 34.3094 46.1377 34.2498 46.1186 34.1944C46.0995 34.1391 46.0652 34.0902 46.0197 34.0534C45.9741 34.0165 45.9192 33.9932 45.8611 33.9861L39.6033 33.2478C39.404 33.2244 39.2322 33.3923 39.2556 33.5955L39.9939 39.8533C40.0251 40.1111 40.3415 40.2205 40.5251 40.0369L42.2322 38.3298L47.4548 43.5486C47.5759 43.6697 47.7751 43.6697 47.8962 43.5486L49.5525 41.8962C49.6736 41.7751 49.6736 41.5759 49.5525 41.4548L44.3298 36.2322ZM58.1072 43.5486C58.2283 43.6697 58.4275 43.6697 58.5486 43.5486L63.7712 38.3298L65.4783 40.0369C65.5198 40.0782 65.572 40.107 65.6291 40.1201C65.6862 40.1331 65.7458 40.1299 65.8012 40.1108C65.8565 40.0917 65.9054 40.0574 65.9422 40.0119C65.979 39.9663 66.0024 39.9114 66.0095 39.8533L66.7478 33.5994C66.7712 33.4001 66.6033 33.2283 66.4001 33.2517L60.1423 33.99C59.8845 34.0212 59.7751 34.3376 59.9587 34.5212L61.6736 36.2361L56.4509 41.4509C56.3928 41.5097 56.3601 41.589 56.3601 41.6716C56.3601 41.7543 56.3928 41.8336 56.4509 41.8923L58.1072 43.5486ZM66.0095 54.1423C65.9783 53.8845 65.6619 53.7751 65.4783 53.9587L63.7712 55.6658L58.5486 50.447C58.4898 50.3889 58.4105 50.3562 58.3279 50.3562C58.2452 50.3562 58.1659 50.3889 58.1072 50.447L56.4509 52.0994C56.3928 52.1581 56.3601 52.2374 56.3601 52.3201C56.3601 52.4027 56.3928 52.482 56.4509 52.5408L61.6736 57.7634L59.9587 59.4783C59.9174 59.5198 59.8886 59.572 59.8755 59.6291C59.8625 59.6862 59.8657 59.7458 59.8848 59.8012C59.9039 59.8565 59.9382 59.9054 59.9837 59.9422C60.0293 59.979 60.0842 60.0024 60.1423 60.0095L66.4001 60.7478C66.5994 60.7712 66.7712 60.6033 66.7478 60.4001L66.0095 54.1423ZM47.8962 50.447C47.8375 50.3889 47.7582 50.3562 47.6755 50.3562C47.5929 50.3562 47.5136 50.3889 47.4548 50.447L42.2322 55.6658L40.5251 53.9587C40.4836 53.9174 40.4314 53.8886 40.3743 53.8755C40.3172 53.8625 40.2576 53.8657 40.2022 53.8848C40.1469 53.9039 40.098 53.9382 40.0612 53.9837C40.0244 54.0293 40.001 54.0842 39.9939 54.1423L39.2556 60.3962C39.2322 60.5954 39.4001 60.7673 39.6033 60.7439L45.8611 60.0056C46.1189 59.9744 46.2283 59.658 46.0447 59.4744L44.3298 57.7634L49.5525 52.5447C49.6736 52.4236 49.6736 52.2244 49.5525 52.1033L47.8962 50.447Z" fill="white"/>
<defs>
<filter id="filter0_dd" x="0.0715332" y="0.242188" width="106" height="106" filterUnits="userSpaceOnUse" color-interpolation-filters="sRGB">
<feFlood flood-opacity="0" result="BackgroundImageFix"/>
<feColorMatrix in="SourceAlpha" type="matrix" values="0 0 0 0 0 0 0 0 0 0 0 0 0 0 0 0 0 0 127 0"/>
<feMorphology radius="4" operator="erode" in="SourceAlpha" result="effect1_dropShadow"/>
<feOffset dy="3"/>
<feGaussianBlur stdDeviation="3"/>
<feColorMatrix type="matrix" values="0 0 0 0 0 0 0 0 0 0 0 0 0 0 0 0 0 0 0.12 0"/>
<feBlend mode="normal" in2="BackgroundImageFix" result="effect1_dropShadow"/>
<feColorMatrix in="SourceAlpha" type="matrix" values="0 0 0 0 0 0 0 0 0 0 0 0 0 0 0 0 0 0 127 0"/>
<feOffset dy="6"/>
<feGaussianBlur stdDeviation="8"/>
<feColorMatrix type="matrix" values="0 0 0 0 0 0 0 0 0 0 0 0 0 0 0 0 0 0 0.08 0"/>
<feBlend mode="normal" in2="effect1_dropShadow" result="effect2_dropShadow"/>
<feBlend mode="normal" in="SourceGraphic" in2="effect2_dropShadow" result="shape"/>
</filter>
</defs>
</svg>
