<svg width="24" height="23" viewBox="0 0 24 23" fill="none" xmlns="http://www.w3.org/2000/svg">
<path fill-rule="evenodd" clip-rule="evenodd" d="M5.04113 16.9377L6.05233 15.8299C7.40794 17.1219 9.15254 17.9458 11.0417 18.1554V19.1666H10.0833C9.0248 19.1666 8.16667 20.0247 8.16667 21.0832H15.8333C15.8333 20.0247 14.9752 19.1666 13.9167 19.1666H12.9583V18.1556C17.2708 17.6789 20.625 14.0228 20.625 9.58324C20.625 6.79359 19.2902 4.22522 17.0796 2.61201C16.652 2.30001 16.0525 2.39368 15.7405 2.82121C15.4285 3.24875 15.5222 3.84826 15.9497 4.16026C17.671 5.41639 18.7083 7.41231 18.7083 9.58324C18.7083 13.2881 15.7049 16.2916 12 16.2916C9.95225 16.2916 8.05764 15.3696 6.79057 13.8102C6.42117 13.3555 5.73395 13.3358 5.33902 13.7684L3.62555 15.6455C3.26872 16.0364 3.29634 16.6425 3.68724 16.9994C4.07814 17.3562 4.6843 17.3286 5.04113 16.9377Z" fill="#80808F"/>
<path opacity="0.3" fill-rule="evenodd" clip-rule="evenodd" d="M12 15.3333C15.1756 15.3333 17.75 12.7589 17.75 9.58325C17.75 6.40761 15.1756 3.83325 12 3.83325C8.82436 3.83325 6.25 6.40761 6.25 9.58325C6.25 12.7589 8.82436 15.3333 12 15.3333Z" fill="#80808F"/>
</svg>
