<svg width="170" height="114" viewBox="0 0 170 114" fill="none" xmlns="http://www.w3.org/2000/svg">
<path d="M154.801 20.1607C132.347 -17.1869 98.5218 8.79627 98.5218 8.79627C96.3281 10.4748 92.283 11.8548 89.5345 11.8612L80.4744 11.8677C77.7259 11.8709 73.6809 10.4908 71.4903 8.81232C71.4903 8.81232 37.6622 -17.1773 15.2052 20.1703C-7.24547 57.5052 1.802 98.1649 1.802 98.1649C3.38705 108.12 8.61137 114.764 18.4704 113.929C28.3009 113.098 49.6388 87.1182 49.6388 87.1182C51.4014 84.9775 55.0946 83.2284 57.8367 83.2284L112.153 83.2188C114.899 83.2188 118.589 84.9679 120.348 87.1086C120.348 87.1086 141.689 113.089 151.535 113.92C161.382 114.754 166.619 108.104 168.194 98.1553C168.191 98.1553 177.254 57.502 154.801 20.1607ZM64.589 50.56H52.9421V61.9245C52.9421 61.9245 50.4757 63.8309 46.6589 63.7827C42.8485 63.725 41.1239 61.703 41.1239 61.703V50.5633H30.1237C30.1237 50.5633 28.751 49.1383 28.3833 45.3865C28.0219 41.6347 29.9018 38.6019 29.9018 38.6019H41.5519V26.8106C41.5519 26.8106 43.9485 25.5108 47.3944 25.6103C50.8435 25.7194 53.37 27.032 53.37 27.032L53.3225 38.5987H64.3227C64.3227 38.5987 66.2438 41.0956 66.4023 44.1124C66.5608 47.1324 64.589 50.56 64.589 50.56ZM118.012 63.5131C112.911 63.5131 108.799 59.3377 108.799 54.1802C108.799 49.0131 112.911 44.8473 118.012 44.8473C123.09 44.8473 127.233 49.0131 127.233 54.1802C127.233 59.3409 123.09 63.5131 118.012 63.5131ZM118.012 37.8348C112.911 37.8348 108.799 33.6626 108.799 28.5051C108.799 23.338 112.911 19.1722 118.012 19.1722C123.09 19.1722 127.233 23.338 127.233 28.5051C127.233 33.6658 123.09 37.8348 118.012 37.8348ZM140.969 51.6191C135.869 51.6191 131.757 47.4469 131.757 42.2862C131.757 37.1223 135.869 32.9533 140.969 32.9533C146.048 32.9533 150.191 37.1223 150.191 42.2862C150.191 47.4469 146.048 51.6191 140.969 51.6191Z" fill="#E5E7EB"/>
</svg>
