<svg fill="none" height="26" viewBox="0 0 39 26" width="39" xmlns="http://www.w3.org/2000/svg"><path d="m35.5131 4.6515c-5.1512-8.46312-12.911-2.57523-12.911-2.57523-.5033.38036-1.4313.69308-2.0618.69454l-2.0785.00145c-.6305.00073-1.5585-.31199-2.0611-.69235 0 0-7.76054-5.88934-12.91245 2.57377-5.15045 8.46022-3.07485 17.67382-3.07485 17.67382.363629 2.256 1.56215 3.7614 3.82393 3.5723 2.25523-.1883 7.15037-6.0755 7.15037-6.0755.4044-.4851 1.2517-.8814 1.8807-.8814l12.4609-.0022c.6298 0 1.4763.3963 1.88.8814 0 0 4.8959 5.8872 7.1547 6.0755 2.2589.1891 3.4603-1.3177 3.8218-3.5722-.0007 0 2.0785-9.2122-3.0727-17.6739zm-20.6956 6.8886h-2.672v2.5752s-.5658.432-1.4414.4211c-.87415-.0131-1.26978-.4713-1.26978-.4713v-2.5243h-2.52359s-.3149-.3229-.39926-1.173c-.08291-.85021.34836-1.53747.34836-1.53747h2.67267v-2.67195s.5498-.29454 1.3403-.272c.7913.02473 1.3709.32218 1.3709.32218l-.0109 2.62104h2.5236s.4407.56581.4771 1.2494c.0363.6844-.416 1.4611-.416 1.4611zm12.2558 2.9352c-1.1702 0-2.1134-.9461-2.1134-2.1149 0-1.1708.9432-2.1148 2.1134-2.1148 1.165 0 2.1156.944 2.1156 2.1148 0 1.1695-.9506 2.1149-2.1156 2.1149zm0-5.81878c-1.1702 0-2.1134-.94544-2.1134-2.11415 0-1.17088.9432-2.11487 2.1134-2.11487 1.165 0 2.1156.94399 2.1156 2.11487 0 1.16944-.9506 2.11415-2.1156 2.11415zm5.2668 3.12358c-1.1702 0-2.1134-.9454-2.1134-2.11488 0-1.17016.9432-2.11487 2.1134-2.11487 1.165 0 2.1156.94471 2.1156 2.11487 0 1.16948-.9506 2.11488-2.1156 2.11488z" fill="#fff"/></svg>