<svg width="88" height="48" viewBox="0 0 88 48" fill="none" xmlns="http://www.w3.org/2000/svg">
<path fill-rule="evenodd" clip-rule="evenodd" d="M15.667 6C15.1147 6 14.667 6.44772 14.667 7V41C14.667 41.5523 15.1147 42 15.667 42H24.667C25.2193 42 25.667 41.5523 25.667 41V7C25.667 6.44772 25.2193 6 24.667 6H15.667ZM34.0001 6C33.4478 6 33.0001 6.44772 33.0001 7V41C33.0001 41.5523 33.4478 42 34.0001 42H43.0001C43.5524 42 44.0001 41.5523 44.0001 41V7C44.0001 6.44772 43.5524 6 43.0001 6H34.0001Z" fill="#D2C9C5"/>
<rect opacity="0.3" width="10.5826" height="40.2535" rx="1" transform="matrix(0.982816 -0.184588 0.533804 0.845608 49.416 7.84839)" fill="#D2C9C5"/>
</svg>
