<svg width="32" height="40" viewBox="0 0 32 40" fill="none" xmlns="http://www.w3.org/2000/svg">
<path d="M31.8125 30.0625C31.8125 25.0492 28.8746 20.7188 24.625 18.7018V11.2537C24.625 10.5754 24.3869 9.91953 23.9467 9.40293L17.1006 1.28555C16.8131 0.944141 16.4043 0.773438 16 0.773438C15.5957 0.773438 15.1869 0.944141 14.8994 1.28555L8.05332 9.40293C7.61608 9.92059 7.37583 10.5761 7.375 11.2537V18.7018C3.12539 20.7188 0.1875 25.0492 0.1875 30.0625H7.21777C7.11445 30.3859 7.06055 30.7363 7.06055 31.1316C7.06055 32.1244 7.40195 33.0947 8.02187 33.8629C8.52788 34.4911 9.19804 34.9669 9.95801 35.2375C10.9957 37.6633 13.3541 39.2266 16 39.2266C17.3072 39.2266 18.574 38.8402 19.6566 38.1125C20.7168 37.4027 21.5389 36.41 22.0375 35.2375C22.7972 34.9686 23.4674 34.4943 23.9736 33.8674C24.5944 33.0922 24.9333 32.1292 24.935 31.1361C24.935 30.7588 24.8855 30.3994 24.7957 30.067H31.8125V30.0625ZM27.2439 24.9145C27.6662 25.5703 28.0076 26.2756 28.2547 27.0078H24.4453V22.0979C25.5661 22.8292 26.5197 23.789 27.2439 24.9145ZM10.4297 18.7018V11.3211L16 4.71758L21.5703 11.3211V27.0078H10.4297V18.7018ZM3.74531 27.0078C3.99238 26.2756 4.33379 25.5703 4.75606 24.9145C5.48828 23.7824 6.44063 22.8256 7.55469 22.0979V27.0078H3.74531ZM21.2154 32.2277C20.9818 32.3625 20.7123 32.4164 20.4473 32.3805L19.5713 32.2727L19.4455 33.1441C19.2029 34.8467 17.7205 36.1314 16 36.1314C14.2795 36.1314 12.7971 34.8467 12.5545 33.1441L12.4287 32.2682L11.5527 32.3805C11.2864 32.4122 11.017 32.3571 10.7846 32.2232C10.3938 31.9986 10.1512 31.5809 10.1512 31.1271C10.1512 30.651 10.4162 30.2557 10.807 30.058H21.1975C21.5928 30.2602 21.8533 30.6555 21.8533 31.1271C21.8488 31.5854 21.6062 32.0076 21.2154 32.2277ZM13.8438 14.9688C13.8438 15.5406 14.0709 16.0891 14.4753 16.4934C14.8797 16.8978 15.4281 17.125 16 17.125C16.5719 17.125 17.1203 16.8978 17.5247 16.4934C17.9291 16.0891 18.1562 15.5406 18.1562 14.9688C18.1562 14.3969 17.9291 13.8484 17.5247 13.4441C17.1203 13.0397 16.5719 12.8125 16 12.8125C15.4281 12.8125 14.8797 13.0397 14.4753 13.4441C14.0709 13.8484 13.8438 14.3969 13.8438 14.9688Z" fill="#1890FF"/>
</svg>
