<svg width="62" height="52" viewBox="0 0 62 52" fill="none" xmlns="http://www.w3.org/2000/svg">
<path opacity="0.3" fill-rule="evenodd" clip-rule="evenodd" d="M10.5654 8.95996L30.7229 5.8204C30.9269 5.78863 31.1345 5.78863 31.3385 5.8204L51.496 8.95996V32.0267C51.496 36.133 49.2088 39.8974 45.5645 41.7894L31.4915 49.0957C31.2026 49.2457 30.8588 49.2457 30.5699 49.0957L16.4969 41.7894C12.8525 39.8974 10.5654 36.133 10.5654 32.0267L10.5654 8.95996Z" fill="#D2C9C5"/>
<path opacity="0.3" fill-rule="evenodd" clip-rule="evenodd" d="M15.584 14.4798L29.9344 12.1974C30.1426 12.1643 30.3546 12.1643 30.5627 12.1974L44.9132 14.4798V29.6295C44.9132 33.7017 42.6634 37.4408 39.0655 39.3482L30.717 43.7741C30.424 43.9294 30.0731 43.9294 29.7802 43.7741L21.4316 39.3482C17.8337 37.4408 15.584 33.7017 15.584 29.6295L15.584 14.4798Z" fill="#D2C9C5"/>
</svg>
