<svg width="51" height="50" viewBox="0 0 51 50" fill="none" xmlns="http://www.w3.org/2000/svg">
<path d="M47.4729 16.3254L45.292 14.7878L45.2617 12.1196C45.26 11.9639 45.2117 11.8123 45.1232 11.6842C45.0346 11.5561 44.9098 11.4573 44.7647 11.4007L42.2795 10.4303L41.614 7.84658C41.5751 7.69576 41.492 7.55999 41.3755 7.45672C41.2589 7.35344 41.1141 7.28737 40.9597 7.26699L38.3152 6.91611L37.0528 4.56553C36.979 4.4284 36.8658 4.31642 36.728 4.24393C36.5901 4.17144 36.4338 4.14173 36.2789 4.15859L33.6264 4.45156L31.8353 2.47275C31.7308 2.35711 31.5939 2.27544 31.4425 2.23826C31.2911 2.20109 31.132 2.21011 30.9857 2.26416L28.4822 3.18691L26.27 1.6959C26.141 1.60895 25.989 1.5625 25.8334 1.5625C25.6778 1.5625 25.5258 1.60895 25.3968 1.6959L23.1843 3.18691L20.6806 2.26406C20.5343 2.2101 20.3752 2.20114 20.2238 2.23833C20.0724 2.27552 19.9356 2.35716 19.831 2.47275L18.0404 4.45117L15.388 4.15869C15.2331 4.1415 15.0766 4.17108 14.9387 4.2436C14.8008 4.31613 14.6877 4.42828 14.6141 4.56562L13.3517 6.91621L10.7064 7.26709C10.552 7.28748 10.4072 7.35356 10.2906 7.45685C10.174 7.56015 10.091 7.69593 10.0521 7.84678L9.38671 10.4305L6.90146 11.4009C6.75642 11.4575 6.63161 11.5562 6.54306 11.6843C6.45451 11.8124 6.40625 11.964 6.40449 12.1197L6.37421 14.7879L4.19375 16.3255C4.06635 16.4153 3.96874 16.5412 3.91345 16.6869C3.85816 16.8326 3.84773 16.9916 3.88349 17.1433L4.4958 19.7409L2.74941 21.7579C2.64752 21.8756 2.58314 22.0211 2.56452 22.1757C2.5459 22.3303 2.5739 22.4869 2.64492 22.6255L3.86181 25.0001L2.64492 27.3743C2.5739 27.5129 2.5459 27.6695 2.56452 27.8241C2.58314 27.9787 2.64752 28.1242 2.74941 28.2419L4.4955 30.2597L3.8832 32.8573C3.84747 33.009 3.85793 33.1679 3.91323 33.3137C3.96854 33.4594 4.06616 33.5852 4.19355 33.675L6.37451 35.2126L6.40478 37.8808C6.40653 38.0365 6.45477 38.1881 6.54333 38.3162C6.63188 38.4443 6.75669 38.543 6.90175 38.5997L9.3873 39.5704L10.0528 42.1541C10.0917 42.3049 10.1747 42.4407 10.2913 42.544C10.4079 42.6472 10.5527 42.7133 10.7071 42.7337L13.3519 43.0846L14.6144 45.4352C14.6882 45.5723 14.8013 45.6843 14.9392 45.7567C15.0771 45.8292 15.2334 45.8589 15.3883 45.8421L18.0408 45.5496L19.8318 47.5279C19.9365 47.6435 20.0733 47.7251 20.2247 47.7623C20.3761 47.7995 20.5352 47.7905 20.6814 47.7365L23.185 46.8138L25.3975 48.3048C25.5265 48.3917 25.6785 48.4382 25.8341 48.4382C25.9897 48.4382 26.1417 48.3917 26.2707 48.3048L28.4832 46.8138L30.9869 47.7366C31.1332 47.7905 31.2922 47.7994 31.4436 47.7622C31.595 47.725 31.7318 47.6434 31.8365 47.5279L33.6275 45.5495L36.28 45.8425C36.4348 45.8596 36.5913 45.8299 36.7292 45.7574C36.8671 45.6849 36.9802 45.5728 37.0539 45.4355L38.3163 43.085L40.9612 42.7341C41.1156 42.7137 41.2605 42.6476 41.377 42.5443C41.4936 42.441 41.5767 42.3052 41.6155 42.1544L42.281 39.5707L44.7662 38.6003C44.9113 38.5436 45.0361 38.4449 45.1246 38.3169C45.2132 38.1888 45.2614 38.0371 45.2632 37.8814L45.2934 35.2133L47.4744 33.6757C47.6018 33.5859 47.6994 33.46 47.7547 33.3143C47.81 33.1685 47.8204 33.0096 47.7847 32.8579L47.1724 30.2603L48.9174 28.2423C49.0193 28.1245 49.0836 27.9791 49.1023 27.8245C49.1209 27.6699 49.0929 27.5133 49.0219 27.3747L47.805 25.0001L49.0219 22.6259C49.0929 22.4873 49.1209 22.3307 49.1023 22.1761C49.0836 22.0215 49.0193 21.876 48.9174 21.7583L47.1713 19.7405L47.7836 17.1429C47.8192 16.9912 47.8087 16.8323 47.7534 16.6866C47.698 16.5409 47.6003 16.4151 47.4729 16.3254ZM47.391 22.3822L46.2319 24.6438C46.1753 24.7541 46.1458 24.8763 46.1458 25.0003C46.1458 25.1243 46.1753 25.2465 46.2319 25.3567L47.391 27.6184L45.7283 29.5394C45.6474 29.6328 45.5898 29.7441 45.5603 29.8642C45.5308 29.9842 45.5302 30.1096 45.5586 30.2299L46.1414 32.7021L44.0652 34.1659C43.9642 34.2372 43.8815 34.3314 43.8239 34.4409C43.7664 34.5503 43.7357 34.6719 43.7343 34.7955L43.705 37.3359L41.3381 38.2602C41.2228 38.3052 41.1198 38.377 41.0377 38.4697C40.9556 38.5623 40.8967 38.6732 40.8658 38.7931L40.2319 41.254L37.7131 41.5881C37.5903 41.6043 37.4732 41.6495 37.3713 41.7199C37.2694 41.7903 37.1857 41.8839 37.1271 41.993L35.926 44.2306L33.401 43.952C33.2781 43.9386 33.1538 43.9544 33.0383 43.9983C32.9227 44.0421 32.8192 44.1127 32.7362 44.2043L31.0314 46.0876L28.6476 45.2087C28.5315 45.166 28.4069 45.1515 28.284 45.1663C28.1612 45.1811 28.0436 45.2248 27.9409 45.2939L25.8334 46.7144L23.7259 45.2941C23.6232 45.225 23.5056 45.1812 23.3828 45.1664C23.2599 45.1516 23.1353 45.1662 23.0191 45.209L20.6355 46.0879L18.9308 44.2047C18.8477 44.1131 18.7442 44.0425 18.6287 43.9987C18.5131 43.9548 18.3889 43.939 18.266 43.9524L15.7409 44.231L14.5389 41.9923C14.4803 41.8832 14.3966 41.7896 14.2947 41.7192C14.1928 41.6488 14.0757 41.6036 13.9529 41.5874L11.4342 41.2533L10.8002 38.7924C10.7693 38.6725 10.7104 38.5617 10.6283 38.469C10.5462 38.3764 10.4432 38.3046 10.3279 38.2596L7.96103 37.3353L7.933 34.795C7.93161 34.6714 7.90089 34.5498 7.84335 34.4403C7.78581 34.3308 7.70311 34.2366 7.60205 34.1653L5.52587 32.7017L6.10859 30.2293C6.13698 30.109 6.13639 29.9837 6.10689 29.8636C6.07738 29.7436 6.01979 29.6323 5.93886 29.5389L4.27578 27.618L5.43486 25.3563C5.49148 25.2461 5.52102 25.1239 5.52102 24.9999C5.52102 24.8759 5.49148 24.7537 5.43486 24.6435L4.27578 22.3822L5.93847 20.4612C6.01938 20.3678 6.07695 20.2564 6.10645 20.1364C6.13596 20.0164 6.13656 19.891 6.1082 19.7707L5.52539 17.2984L7.60156 15.8347C7.70261 15.7634 7.78531 15.6692 7.84284 15.5597C7.90038 15.4503 7.93111 15.3287 7.93251 15.2051L7.96181 12.6646L10.3287 11.7404C10.444 11.6954 10.547 11.6236 10.6291 11.5309C10.7112 11.4383 10.7701 11.3274 10.801 11.2075L11.4349 8.74658L13.9537 8.4125C14.0765 8.39628 14.1936 8.35111 14.2955 8.28071C14.3974 8.21031 14.4811 8.11671 14.5396 8.00762L15.7408 5.76963L18.2658 6.04814C18.3887 6.06152 18.5129 6.04564 18.6285 6.0018C18.744 5.95796 18.8475 5.8874 18.9306 5.7959L20.6353 3.9126L23.0191 4.7915C23.1353 4.8342 23.2599 4.84874 23.3828 4.83392C23.5056 4.8191 23.6232 4.77534 23.7259 4.70625L25.8334 3.28584L27.9409 4.70605C28.0435 4.77521 28.1611 4.819 28.284 4.8338C28.4069 4.84861 28.5315 4.83401 28.6476 4.79121L31.0312 3.9123L32.736 5.79551C32.8191 5.88704 32.9226 5.95761 33.0381 6.00145C33.1537 6.04529 33.2779 6.06116 33.4008 6.04775L35.9259 5.76924L37.1279 8.00791C37.1865 8.117 37.2702 8.21061 37.3721 8.281C37.4739 8.3514 37.5911 8.39657 37.7139 8.41279L40.2326 8.74687L40.8666 11.2078C40.8975 11.3277 40.9564 11.4385 41.0385 11.5311C41.1206 11.6238 41.2236 11.6956 41.3389 11.7406L43.7058 12.6648L43.7338 15.2052C43.7352 15.3288 43.7659 15.4504 43.8234 15.5599C43.881 15.6693 43.9637 15.7636 44.0647 15.8349L46.1409 17.2985L45.5582 19.7709C45.5298 19.8912 45.5304 20.0165 45.5599 20.1366C45.5894 20.2566 45.647 20.3679 45.7279 20.4613L47.391 22.3822Z" fill="#10B981"/>
<path d="M39.8959 25.0001V25.0329H41.4584V25.0001C41.4584 24.4551 41.4303 23.9104 41.3742 23.3683L39.8201 23.5296C39.8706 24.0182 39.8959 24.509 39.8959 25.0001Z" fill="#10B981"/>
<path d="M12.976 30.7047L11.5481 31.3395C11.77 31.838 12.0177 32.3245 12.2903 32.7972L13.6438 32.0165C13.3985 31.5912 13.1756 31.1533 12.976 30.7047Z" fill="#10B981"/>
<path d="M15.3626 36.5978C15.7673 36.9633 16.1907 37.3075 16.6312 37.629L17.5522 36.3672C17.1557 36.0777 16.7745 35.7678 16.4102 35.4387L15.3626 36.5978Z" fill="#10B981"/>
<path d="M36.2859 15.5925C36.6145 15.9576 36.924 16.3394 37.213 16.7365L38.4765 15.8171C38.1555 15.3765 37.8119 14.9528 37.4472 14.5476L36.2859 15.5925Z" fill="#10B981"/>
<path d="M20.9814 39.8569C21.5001 40.026 22.0274 40.1678 22.561 40.2817L22.8868 38.7536C22.4069 38.6512 21.9327 38.5236 21.4662 38.3715L20.9814 39.8569Z" fill="#10B981"/>
<path d="M39.5916 22.0763L41.1203 21.7529C41.0073 21.2191 40.8664 20.6915 40.6981 20.1724L39.2122 20.6544C39.3635 21.1214 39.4902 21.596 39.5916 22.0763Z" fill="#10B981"/>
<path d="M38.6849 19.2811L40.112 18.6449C39.8898 18.1465 39.6416 17.66 39.3685 17.1875L38.016 17.9699C38.2617 18.395 38.485 18.8326 38.6849 19.2811Z" fill="#10B981"/>
<path d="M24.1758 40.538C24.7179 40.5949 25.2625 40.6239 25.8075 40.6249L25.8101 39.0624C25.319 39.0616 24.8283 39.0356 24.3399 38.9843L24.1758 40.538Z" fill="#10B981"/>
<path d="M14.4448 33.2512L13.1802 34.1692C13.5006 34.6105 13.8437 35.0349 14.2082 35.4405L15.3703 34.396C15.0422 34.0307 14.7333 33.6486 14.4448 33.2512Z" fill="#10B981"/>
<path d="M36.2914 13.3908C35.8863 13.0257 35.4626 12.6819 35.0219 12.3608L34.1023 13.6241C34.499 13.9131 34.8804 14.2226 35.2449 14.5513L36.2914 13.3908Z" fill="#10B981"/>
<path d="M33.6516 11.469C33.1796 11.1959 32.6937 10.9476 32.1958 10.7252L31.5587 12.152C32.0068 12.3521 32.4441 12.5756 32.8688 12.8213L33.6516 11.469Z" fill="#10B981"/>
<path d="M21.4953 11.6191L21.0139 10.1328C20.4947 10.3012 19.9847 10.4968 19.4861 10.7187L20.1215 12.1462C20.5699 11.9466 21.0285 11.7707 21.4953 11.6191Z" fill="#10B981"/>
<path d="M24.3706 11.0127L24.2103 9.45837C23.6678 9.51449 23.1286 9.59885 22.5948 9.71111L22.9171 11.2401C23.3973 11.1389 23.8825 11.063 24.3706 11.0127Z" fill="#10B981"/>
<path d="M27.4741 9.46006C26.9319 9.40369 26.3872 9.3753 25.8421 9.375L25.8413 10.9375C26.3324 10.9378 26.8231 10.9634 27.3116 11.0142L27.4741 9.46006Z" fill="#10B981"/>
<path d="M30.669 10.138C30.1501 9.96951 29.6228 9.82827 29.0891 9.71484L28.7647 11.2433C29.2447 11.3453 29.7191 11.4725 30.1858 11.6241L30.669 10.138Z" fill="#10B981"/>
<path d="M37.1957 33.2875L38.4574 34.2094C38.779 33.769 39.0774 33.3122 39.3515 32.8408L38.0008 32.0555C37.7539 32.4799 37.4852 32.8911 37.1957 33.2875Z" fill="#10B981"/>
<path d="M32.8429 37.1939L33.6231 38.5478C34.0956 38.2754 34.5536 37.9785 34.9953 37.6584L34.0783 36.3934C33.6807 36.6815 33.2683 36.9487 32.8429 37.1939Z" fill="#10B981"/>
<path d="M18.0001 38.5226C18.4718 38.7963 18.9575 39.0451 19.4552 39.2681L20.0938 37.8423C19.6459 37.6417 19.2089 37.4178 18.7845 37.1715L18.0001 38.5226Z" fill="#10B981"/>
<path d="M35.2234 35.4687L36.2672 36.6309C36.6729 36.2666 37.0594 35.8815 37.4252 35.4772L36.2663 34.4292C35.9369 34.7935 35.5888 35.1405 35.2234 35.4687Z" fill="#10B981"/>
<path d="M38.6721 30.747L40.0979 31.3862C40.321 30.8883 40.5178 30.379 40.6875 29.8605L39.2026 29.3751C39.0498 29.8414 38.8728 30.2993 38.6721 30.747Z" fill="#10B981"/>
<path d="M30.1567 38.3857L30.6364 39.8727C31.1558 39.705 31.666 39.5101 32.1649 39.2888L31.5312 37.8606C31.0825 38.0596 30.6238 38.2349 30.1567 38.3857Z" fill="#10B981"/>
<path d="M12.0783 22.0606L10.5502 21.7361C10.437 22.2696 10.3517 22.8087 10.2948 23.3511L11.8487 23.5142C11.8998 23.026 11.9765 22.5408 12.0783 22.0606Z" fill="#10B981"/>
<path d="M11.7708 25V24.9836H10.2083V25C10.2083 25.5394 10.2359 26.0783 10.2909 26.6148L11.8452 26.4549C11.7956 25.9716 11.7708 25.486 11.7708 25Z" fill="#10B981"/>
<path d="M27.2807 38.9891L27.4394 40.5436C27.9819 40.488 28.5211 40.4043 29.0549 40.2926L28.7347 38.7633C28.2543 38.8638 27.769 38.9391 27.2807 38.9891Z" fill="#10B981"/>
<path d="M12.9884 19.2677L11.5618 18.6301C11.3393 19.1283 11.1431 19.6378 10.974 20.1565L12.4597 20.6404C12.6118 20.1739 12.7883 19.7157 12.9884 19.2677Z" fill="#10B981"/>
<path d="M12.0719 27.9087L10.5428 28.2303C10.6553 28.7643 10.7956 29.2921 10.9634 29.8114L12.4502 29.3308C12.2992 28.8637 12.173 28.389 12.0719 27.9087Z" fill="#10B981"/>
<path d="M39.5852 27.9544L41.1132 28.2812C41.2271 27.7477 41.3129 27.2087 41.3705 26.6663L39.8167 26.5016C39.7649 26.9896 39.6876 27.4745 39.5852 27.9544Z" fill="#10B981"/>
<path d="M16.4317 14.5423L15.3868 13.3807C14.9816 13.7455 14.5955 14.1311 14.2301 14.5358L15.3901 15.5825C15.7192 15.218 16.0668 14.8708 16.4317 14.5423Z" fill="#10B981"/>
<path d="M14.462 16.7253L13.1993 15.8048C12.8782 16.2455 12.5802 16.7026 12.3065 17.1742L13.6583 17.958C13.9046 17.5334 14.1729 17.122 14.462 16.7253Z" fill="#10B981"/>
<path d="M18.8104 12.8141L18.0291 11.4609C17.5568 11.734 17.0991 12.0314 16.6576 12.352L17.5762 13.616C17.9733 13.3274 18.3853 13.0597 18.8104 12.8141Z" fill="#10B981"/>
<path d="M38.3334 25.0001C38.3334 22.5279 37.6003 20.1111 36.2267 18.0555C34.8532 15.9999 32.901 14.3977 30.6169 13.4516C28.3328 12.5055 25.8195 12.258 23.3947 12.7403C20.97 13.2226 18.7427 14.4131 16.9945 16.1613C15.2464 17.9094 14.0559 20.1367 13.5735 22.5615C13.0912 24.9863 13.3388 27.4996 14.2849 29.7837C15.231 32.0677 16.8331 34.02 18.8887 35.3935C20.9444 36.767 23.3611 37.5001 25.8334 37.5001C29.1474 37.4964 32.3246 36.1782 34.668 33.8348C37.0114 31.4914 38.3296 28.3142 38.3334 25.0001ZM25.8334 35.9376C23.6701 35.9376 21.5555 35.2962 19.7568 34.0943C17.9582 32.8925 16.5563 31.1843 15.7284 29.1857C14.9006 27.1872 14.684 24.988 15.106 22.8663C15.5281 20.7447 16.5697 18.7958 18.0994 17.2661C19.629 15.7365 21.5779 14.6948 23.6996 14.2728C25.8212 13.8508 28.0204 14.0674 30.019 14.8952C32.0175 15.723 33.7257 17.1249 34.9276 18.9236C36.1294 20.7222 36.7709 22.8369 36.7709 25.0001C36.7676 27.8999 35.6142 30.68 33.5637 32.7305C31.5133 34.781 28.7332 35.9343 25.8334 35.9376Z" fill="#10B981"/>
<path d="M32.9595 20.2179C32.5195 19.779 31.9235 19.5326 31.3022 19.5326C30.6808 19.5326 30.0848 19.779 29.6448 20.2179L22.7084 27.1544L21.2407 25.6866C20.8012 25.2471 20.205 25.0001 19.5834 25.0001C18.9618 25.0001 18.3656 25.2471 17.9261 25.6866C17.4865 26.1262 17.2396 26.7223 17.2396 27.3439C17.2396 27.9655 17.4865 28.5617 17.9261 29.0013L21.0511 32.1263C21.2687 32.3439 21.5271 32.5166 21.8115 32.6343C22.0958 32.7521 22.4006 32.8128 22.7084 32.8128C23.0162 32.8128 23.321 32.7521 23.6053 32.6343C23.8897 32.5166 24.1481 32.3439 24.3657 32.1263L32.9595 23.5325C33.1771 23.3149 33.3498 23.0565 33.4676 22.7721C33.5854 22.4878 33.646 22.183 33.646 21.8752C33.646 21.5674 33.5854 21.2626 33.4676 20.9782C33.3498 20.6939 33.1771 20.4355 32.9595 20.2179ZM31.8545 22.4275L23.2607 31.0213C23.1142 31.1677 22.9156 31.25 22.7084 31.25C22.5012 31.25 22.3026 31.1677 22.1561 31.0213L19.0311 27.8963C18.8873 27.7492 18.8073 27.5514 18.8084 27.3457C18.8096 27.14 18.8919 26.9431 19.0373 26.7976C19.1828 26.6522 19.3797 26.57 19.5854 26.5689C19.7911 26.5677 19.9889 26.6478 20.1359 26.7916L22.1562 28.8116C22.3027 28.9581 22.5014 29.0404 22.7086 29.0404C22.9157 29.0404 23.1144 28.9581 23.2609 28.8116L30.7499 21.3228C30.822 21.2482 30.9082 21.1887 31.0035 21.1478C31.0988 21.1068 31.2013 21.0853 31.3051 21.0844C31.4088 21.0835 31.5117 21.1032 31.6077 21.1425C31.7037 21.1818 31.7909 21.2398 31.8643 21.3132C31.9376 21.3865 31.9956 21.4737 32.0349 21.5697C32.0742 21.6658 32.094 21.7686 32.0931 21.8724C32.0922 21.9761 32.0706 22.0786 32.0297 22.1739C31.9887 22.2692 31.9292 22.3555 31.8546 22.4275H31.8545Z" fill="#10B981"/>
<path d="M25.8333 6.25C15.4946 6.25 7.08334 14.6612 7.08334 25C7.08334 35.3388 15.4946 43.75 25.8333 43.75C36.1721 43.75 44.5833 35.3388 44.5833 25C44.5833 14.6612 36.1721 6.25 25.8333 6.25ZM25.8333 42.1875C16.3561 42.1875 8.64584 34.4772 8.64584 25C8.64584 15.5228 16.3561 7.8125 25.8333 7.8125C35.3106 7.8125 43.0208 15.5228 43.0208 25C43.0208 34.4772 35.3106 42.1875 25.8333 42.1875Z" fill="#10B981"/>
</svg>
