<svg width="29" height="29" viewBox="0 0 29 29" fill="none" xmlns="http://www.w3.org/2000/svg">
<path fill-rule="evenodd" clip-rule="evenodd" d="M21.2203 25.3759C21.0294 25.3759 20.8373 25.3312 20.6609 25.2393L14.4996 22.0203L8.33949 25.2393C7.93108 25.4508 7.43808 25.4145 7.06833 25.1439C6.69616 24.8732 6.51128 24.4153 6.58983 23.9621L7.76312 17.1616L2.78478 12.3464C2.4537 12.0262 2.33407 11.5453 2.47545 11.1055C2.61682 10.668 2.99503 10.3478 3.45178 10.2826L10.3393 9.28209L13.4181 3.08817C13.8265 2.26651 15.1738 2.26651 15.5822 3.08817L18.6611 9.28209L25.5486 10.2826C26.0053 10.3478 26.3835 10.668 26.5249 11.1055C26.6663 11.5453 26.5467 12.0262 26.2156 12.3464L21.2372 17.1616L22.4105 23.9621C22.4891 24.4153 22.303 24.8732 21.932 25.1439C21.7218 25.2985 21.4717 25.3759 21.2203 25.3759Z" fill="#231F20"/>
<mask id="mask0" mask-type="alpha" maskUnits="userSpaceOnUse" x="2" y="2" width="25" height="24">
<path fill-rule="evenodd" clip-rule="evenodd" d="M21.2203 25.3759C21.0294 25.3759 20.8373 25.3312 20.6609 25.2393L14.4996 22.0203L8.33949 25.2393C7.93108 25.4508 7.43808 25.4145 7.06833 25.1439C6.69616 24.8732 6.51128 24.4153 6.58983 23.9621L7.76312 17.1616L2.78478 12.3464C2.4537 12.0262 2.33407 11.5453 2.47545 11.1055C2.61682 10.668 2.99503 10.3478 3.45178 10.2826L10.3393 9.28209L13.4181 3.08817C13.8265 2.26651 15.1738 2.26651 15.5822 3.08817L18.6611 9.28209L25.5486 10.2826C26.0053 10.3478 26.3835 10.668 26.5249 11.1055C26.6663 11.5453 26.5467 12.0262 26.2156 12.3464L21.2372 17.1616L22.4105 23.9621C22.4891 24.4153 22.303 24.8732 21.932 25.1439C21.7218 25.2985 21.4717 25.3759 21.2203 25.3759Z" fill="white"/>
</mask>
<g mask="url(#mask0)">
<rect width="29" height="29" fill="#F2C94C"/>
</g>
</svg>
