<svg width="75" height="75" viewBox="0 0 75 75" fill="none" xmlns="http://www.w3.org/2000/svg">
<g clip-path="url(#clip0)">
<path d="M37.0095 74.0191C57.4493 74.0191 74.0191 57.4493 74.0191 37.0095C74.0191 16.5697 57.4493 0 37.0095 0C16.5697 0 0 16.5697 0 37.0095C0 57.4493 16.5697 74.0191 37.0095 74.0191Z" fill="url(#paint0_linear)"/>
<path d="M59.6959 29.6383C59.4408 28.8533 58.7623 28.2811 57.9455 28.1624L44.8229 26.2555L38.9543 14.3645C38.5889 13.6243 37.835 13.1558 37.0097 13.1558C36.1843 13.1558 35.4304 13.6243 35.0651 14.3646L29.1965 26.2557L16.0738 28.1625C15.257 28.2812 14.5783 28.8534 14.3233 29.6384C14.0682 30.4235 14.281 31.2852 14.872 31.8613L24.3677 41.1172L22.126 54.1867C21.9865 55.0002 22.3209 55.8225 22.9887 56.3077C23.6566 56.7929 24.5418 56.8569 25.2724 56.4728L37.0097 50.3022L48.7469 56.4728C49.483 56.8597 50.3678 56.7893 51.0306 56.3077C51.6984 55.8225 52.0329 55.0004 51.8934 54.1867L49.6517 41.1172L59.1473 31.8613C59.7383 31.2851 59.9509 30.4233 59.6959 29.6383Z" fill="url(#paint1_linear)"/>
</g>
<defs>
<linearGradient id="paint0_linear" x1="37.0095" y1="74.0191" x2="37.0095" y2="0" gradientUnits="userSpaceOnUse">
<stop stop-color="#FD5900"/>
<stop offset="1" stop-color="#FFDE00"/>
</linearGradient>
<linearGradient id="paint1_linear" x1="37.0097" y1="56.7219" x2="37.0097" y2="13.1558" gradientUnits="userSpaceOnUse">
<stop stop-color="#FFE59A"/>
<stop offset="1" stop-color="#FFFFD5"/>
</linearGradient>
<clipPath id="clip0">
<rect width="74.0191" height="74.0191" fill="white"/>
</clipPath>
</defs>
</svg>
