<svg width="18" height="18" viewBox="0 0 18 18" fill="none" xmlns="http://www.w3.org/2000/svg">
<path d="M8.04896 3.42664C8.34833 2.50537 9.65167 2.50538 9.95105 3.42664L10.684 5.6822C10.8179 6.09419 11.2018 6.37313 11.635 6.37315L14.0067 6.37324C14.9754 6.37328 15.3781 7.61283 14.5945 8.18223L12.6758 9.57634C12.3253 9.83098 12.1787 10.2823 12.3126 10.6943L13.0454 12.9499C13.3447 13.8712 12.2902 14.6373 11.5065 14.068L9.58775 12.674C9.23728 12.4194 8.76272 12.4194 8.41225 12.674L6.49347 14.068C5.70977 14.6373 4.65534 13.8712 4.95465 12.9499L5.68745 10.6943C5.8213 10.2823 5.67465 9.83098 5.3242 9.57634L3.40553 8.18223C2.62187 7.61283 3.02462 6.37328 3.99331 6.37324L6.36498 6.37315C6.79818 6.37313 7.1821 6.09419 7.31598 5.6822L8.04896 3.42664Z" stroke="#9CA3AF" stroke-width="1.5"/>
</svg>
