<svg width="64" height="64" viewBox="0 0 64 64" fill="none" xmlns="http://www.w3.org/2000/svg">
<path d="M32.0297 11.899L26.1297 23.8553L12.9297 25.774L22.4797 35.0865L20.2234 48.2303L32.0297 42.024L43.8359 48.224L41.5797 35.0803L51.1297 25.774L37.9297 23.8553L32.0297 11.899Z" fill="#E1E8FF"/>
<path d="M56.7881 22.049L40.9194 19.7428L33.8256 5.36155C33.6319 4.9678 33.3131 4.64905 32.9194 4.4553C31.9319 3.9678 30.7319 4.37405 30.2381 5.36155L23.1444 19.7428L7.27561 22.049C6.83811 22.1115 6.43811 22.3178 6.13186 22.6303C5.76162 23.0108 5.5576 23.5228 5.56463 24.0537C5.57166 24.5846 5.78917 25.0909 6.16936 25.4615L17.6506 36.6553L14.9381 52.4615C14.8745 52.8292 14.9152 53.2074 15.0556 53.5531C15.1959 53.8989 15.4304 54.1984 15.7323 54.4176C16.0342 54.6369 16.3915 54.7672 16.7637 54.7938C17.1359 54.8203 17.5081 54.742 17.8381 54.5678L32.0319 47.1053L46.2256 54.5678C46.6131 54.774 47.0631 54.8428 47.4944 54.7678C48.5819 54.5803 49.3131 53.549 49.1256 52.4615L46.4131 36.6553L57.8944 25.4615C58.2069 25.1553 58.4131 24.7553 58.4756 24.3178C58.6444 23.224 57.8819 22.2115 56.7881 22.049ZM41.5819 35.0803L43.8381 48.224L32.0319 42.024L20.2256 48.2303L22.4819 35.0865L12.9319 25.774L26.1319 23.8553L32.0319 11.899L37.9319 23.8553L51.1319 25.774L41.5819 35.0803Z" fill="#485ABA"/>
</svg>
