<svg width="66" height="61" viewBox="0 0 66 61" fill="none" xmlns="http://www.w3.org/2000/svg">
<path d="M41.0323 24.4427C41.8277 24.4429 42.5954 24.7176 43.1895 25.2146C43.7836 25.7117 44.1628 26.3964 44.2551 27.1389L44.2778 27.4927V40.8151C44.299 43.5963 43.1591 46.2744 41.1028 48.2746C39.0465 50.2748 36.2376 51.4377 33.2793 51.5135C30.3209 51.5894 27.4488 50.5722 25.2795 48.6803C23.1102 46.7885 21.8166 44.1727 21.6764 41.3946L21.6602 40.8151V27.4927C21.6604 26.7452 21.9527 26.0238 22.4816 25.4654C23.0105 24.9071 23.7391 24.5508 24.5292 24.4641L24.9056 24.4427H41.0323ZM19.2877 24.4427C18.8155 25.2085 18.5275 26.0621 18.4439 26.9437L18.4147 27.4927V40.8151L18.4309 41.4556C18.5283 43.4168 19.0638 45.2681 19.9498 46.9304C18.5832 47.4697 17.0989 47.6933 15.6214 47.5822C14.1439 47.4711 12.7162 47.0286 11.4583 46.2918C10.2003 45.5551 9.14873 44.5456 8.39171 43.348C7.63468 42.1504 7.19431 40.7996 7.10754 39.4091L7.09131 38.8967V27.4927C7.09141 26.7457 7.38326 26.0246 7.91149 25.4664C8.43971 24.9081 9.16759 24.5515 9.95705 24.4641L10.3368 24.4427H19.2845H19.2877ZM46.6535 24.4427H55.6888C56.4842 24.4429 57.2519 24.7176 57.846 25.2146C58.4401 25.7117 58.8193 26.3964 58.9115 27.1389L58.9343 27.4927V38.8997C58.9344 40.3421 58.5534 41.7619 57.8254 43.0317C57.0975 44.3015 56.0454 45.3816 54.7636 46.175C53.4819 46.9684 52.0105 47.4502 50.4817 47.5772C48.9529 47.7043 47.4144 47.4726 46.0044 46.9029C46.8765 45.257 47.3844 43.462 47.4973 41.6264L47.5232 40.8151V27.4927L47.5038 27.0383C47.4329 26.1238 47.1422 25.2363 46.6535 24.4427ZM32.9641 9.11646C34.8814 9.11646 36.7202 9.83224 38.076 11.1063C39.4317 12.3804 40.1934 14.1085 40.1934 15.9103C40.1934 17.7122 39.4317 19.4402 38.076 20.7143C36.7202 21.9884 34.8814 22.7042 32.9641 22.7042C31.0468 22.7042 29.208 21.9884 27.8522 20.7143C26.4965 19.4402 25.7348 17.7122 25.7348 15.9103C25.7348 14.1085 26.4965 12.3804 27.8522 11.1063C29.208 9.83224 31.0468 9.11646 32.9641 9.11646ZM49.1492 11.0319C50.7963 11.0319 52.3758 11.6467 53.5405 12.7412C54.7051 13.8357 55.3594 15.3202 55.3594 16.868C55.3594 18.4159 54.7051 19.9003 53.5405 20.9948C52.3758 22.0893 50.7963 22.7042 49.1492 22.7042C47.5022 22.7042 45.9226 22.0893 44.7579 20.9948C43.5933 19.9003 42.939 18.4159 42.939 16.868C42.939 15.3202 43.5933 13.8357 44.7579 12.7412C45.9226 11.6467 47.5022 11.0319 49.1492 11.0319ZM16.8277 11.0319C18.4747 11.0319 20.0543 11.6467 21.219 12.7412C22.3836 13.8357 23.0379 15.3202 23.0379 16.868C23.0379 18.4159 22.3836 19.9003 21.219 20.9948C20.0543 22.0893 18.4747 22.7042 16.8277 22.7042C15.1806 22.7042 13.6011 22.0893 12.4364 20.9948C11.2718 19.9003 10.6175 18.4159 10.6175 16.868C10.6175 15.3202 11.2718 13.8357 12.4364 12.7412C13.6011 11.6467 15.1806 11.0319 16.8277 11.0319Z" fill="#D2C9C5"/>
</svg>
