<svg width="17" height="18" viewBox="0 0 17 18" fill="none" xmlns="http://www.w3.org/2000/svg">
<path d="M14.875 7.58333V8.33333C15.2892 8.33333 15.625 7.99755 15.625 7.58333H14.875ZM14.875 10.4167H15.625C15.625 10.0025 15.2892 9.66667 14.875 9.66667V10.4167ZM2.125 10.4167V9.66667C1.71079 9.66667 1.375 10.0025 1.375 10.4167H2.125ZM2.125 7.58333H1.375C1.375 7.99755 1.71079 8.33333 2.125 8.33333V7.58333ZM4.125 3.29167C2.60622 3.29167 1.375 4.52289 1.375 6.04167H2.875C2.875 5.35131 3.43465 4.79167 4.125 4.79167V3.29167ZM12.875 3.29167H4.125V4.79167H12.875V3.29167ZM15.625 6.04167C15.625 4.52288 14.3938 3.29167 12.875 3.29167V4.79167C13.5654 4.79167 14.125 5.35131 14.125 6.04167H15.625ZM15.625 7.58333V6.04167H14.125V7.58333H15.625ZM14.2083 9C14.2083 8.63181 14.5068 8.33333 14.875 8.33333V6.83333C13.6784 6.83333 12.7083 7.80338 12.7083 9H14.2083ZM14.875 9.66667C14.5068 9.66667 14.2083 9.36819 14.2083 9H12.7083C12.7083 10.1966 13.6784 11.1667 14.875 11.1667V9.66667ZM15.625 11.9583V10.4167H14.125V11.9583H15.625ZM12.875 14.7083C14.3938 14.7083 15.625 13.4771 15.625 11.9583H14.125C14.125 12.6487 13.5654 13.2083 12.875 13.2083V14.7083ZM4.125 14.7083H12.875V13.2083H4.125V14.7083ZM1.375 11.9583C1.375 13.4771 2.60622 14.7083 4.125 14.7083V13.2083C3.43464 13.2083 2.875 12.6487 2.875 11.9583H1.375ZM1.375 10.4167V11.9583H2.875V10.4167H1.375ZM2.79167 9C2.79167 9.36819 2.49319 9.66667 2.125 9.66667V11.1667C3.32162 11.1667 4.29167 10.1966 4.29167 9H2.79167ZM2.125 8.33333C2.49319 8.33333 2.79167 8.63181 2.79167 9H4.29167C4.29167 7.80338 3.32162 6.83333 2.125 6.83333V8.33333ZM1.375 6.04167V7.58333H2.875V6.04167H1.375Z" fill="#9CA3AF"/>
<path d="M10.625 4.04167V5.45833" stroke="#9CA3AF" stroke-width="1.5" stroke-linecap="round"/>
<path d="M10.625 8.29167V9.70833" stroke="#9CA3AF" stroke-width="1.5" stroke-linecap="round" stroke-linejoin="round"/>
<path d="M10.625 12.5417V13.9583" stroke="#9CA3AF" stroke-width="1.5" stroke-linecap="round" stroke-linejoin="round"/>
</svg>
