<svg width="82" height="82" viewBox="0 0 82 82" fill="none" xmlns="http://www.w3.org/2000/svg">
<g clip-path="url(#clip0)">
<path d="M23.9197 16.2087L19.1506 11.4297C18.0443 10.3212 16.5726 9.71082 15.0066 9.71082C13.4406 9.71082 11.969 10.3213 10.8628 11.4297L7.40577 14.8942C5.13016 17.1743 5.13016 20.8845 7.40577 23.1647L12.1849 27.9538C12.6524 28.4222 13.2654 28.6563 13.8788 28.6563C14.4902 28.6563 15.102 28.4233 15.5691 27.9573C16.5045 27.0238 22.9822 20.5249 23.9163 19.5927C24.8516 18.6593 24.8532 17.1443 23.9197 16.2087Z" fill="#105C6E"/>
<path d="M40.8381 0.478516C39.5166 0.478516 38.4453 1.54988 38.4453 2.87137V10.5285C38.4453 11.85 39.5166 12.9214 40.8381 12.9214C42.1596 12.9214 43.231 11.85 43.231 10.5285V2.87137C43.231 1.54988 42.1596 0.478516 40.8381 0.478516Z" fill="#26879C"/>
<path d="M46.7405 0H34.9357C33.6142 0 32.5428 1.07136 32.5428 2.39286C32.5428 3.71435 33.6142 4.78571 34.9357 4.78571H46.7405C48.062 4.78571 49.1333 3.71435 49.1333 2.39286C49.1333 1.07136 48.062 0 46.7405 0Z" fill="#DE513C"/>
<path d="M40.8381 0H34.9357C33.6142 0 32.5428 1.07136 32.5428 2.39286C32.5428 3.71435 33.6142 4.78571 34.9357 4.78571H40.8381V0Z" fill="#FC6249"/>
<path d="M66.7838 18.9219C59.8538 11.9775 50.6394 8.15295 40.8381 8.15295C31.0368 8.15295 21.8224 11.9775 14.8923 18.9219C7.96358 25.865 4.14777 35.0962 4.14777 44.9146C4.14777 54.733 7.96358 63.9641 14.8923 70.9072C21.8224 77.8516 31.0368 81.6762 40.8381 81.6762C50.6394 81.6762 59.8538 77.8516 66.7838 70.9072C73.7126 63.9641 77.5284 54.733 77.5284 44.9146C77.5284 35.0962 73.7126 25.865 66.7838 18.9219Z" fill="#DE513C"/>
<path d="M40.8381 8.15295C31.0368 8.15295 21.8224 11.9775 14.8923 18.9219C7.96358 25.865 4.14777 35.0962 4.14777 44.9146C4.14777 54.733 7.96358 63.9641 14.8923 70.9072C21.8224 77.8516 31.0368 81.6762 40.8381 81.6762V8.15295Z" fill="#FC6249"/>
<path d="M40.838 17.3142C25.6484 17.3142 13.2908 29.6955 13.2908 44.9142C13.2908 60.133 25.6484 72.5144 40.838 72.5144C56.0275 72.5144 68.3852 60.133 68.3852 44.9142C68.3852 29.6955 56.0275 17.3142 40.838 17.3142Z" fill="#96D1D9"/>
<path d="M40.838 17.3142C25.6484 17.3142 13.2908 29.6955 13.2908 44.9142C13.2908 60.133 25.6484 72.5144 40.838 72.5144V17.3142Z" fill="#F4F2E6"/>
<path d="M40.8381 23.2915C42.1596 23.2915 43.231 22.2201 43.231 20.8986V17.4197C42.4421 17.3515 41.6443 17.3145 40.8381 17.3145C40.0319 17.3145 39.2341 17.3515 38.4453 17.4197V20.8986C38.4453 22.2201 39.5166 23.2915 40.8381 23.2915Z" fill="#105C6E"/>
<path d="M40.8381 66.5374C39.5166 66.5374 38.4453 67.6087 38.4453 68.9302V72.4091C39.2341 72.4774 40.0319 72.5144 40.8381 72.5144C41.6443 72.5144 42.4421 72.4774 43.231 72.4091V68.9302C43.231 67.6087 42.1596 66.5374 40.8381 66.5374Z" fill="#105C6E"/>
<path d="M68.2807 42.5215H64.854C63.5325 42.5215 62.4611 43.5928 62.4611 44.9143C62.4611 46.2358 63.5325 47.3072 64.854 47.3072H68.2807C68.3487 46.5184 68.3854 45.7206 68.3854 44.9143C68.3854 44.1081 68.3487 43.3103 68.2807 42.5215Z" fill="#105C6E"/>
<path d="M19.215 44.9143C19.215 43.5928 18.1436 42.5215 16.8221 42.5215H13.3954C13.3275 43.3103 13.2908 44.1081 13.2908 44.9143C13.2908 45.7206 13.3275 46.5184 13.3954 47.3072H16.8221C18.1436 47.3072 19.215 46.2358 19.215 44.9143Z" fill="#105C6E"/>
<path d="M46.7404 43.5333H43.3646V33.8555C43.3646 32.534 42.2932 31.4626 40.9717 31.4626C39.6502 31.4626 38.5789 32.534 38.5789 33.8555V45.9262C38.5789 47.2477 39.6502 48.3191 40.9717 48.3191H46.7404C48.0619 48.3191 49.1333 47.2477 49.1333 45.9262C49.1333 44.6047 48.0619 43.5333 46.7404 43.5333Z" fill="#105C6E"/>
</g>
<defs>
<clipPath id="clip0">
<rect width="81.6762" height="81.6762" fill="white"/>
</clipPath>
</defs>
</svg>
