<svg width="25" height="24" viewBox="0 0 25 24" fill="none" xmlns="http://www.w3.org/2000/svg">
<path d="M19.8168 16.404C19.2301 15.8169 18.5446 15.3377 17.7918 14.9883C18.8535 14.1282 19.5308 12.8157 19.5308 11.3438C19.5308 8.74694 17.3652 6.61647 14.7683 6.65631C12.2113 6.69616 10.1511 8.77975 10.1511 11.3438C10.1511 12.8157 10.8308 14.1282 11.8902 14.9883C11.1372 15.3374 10.4516 15.8166 9.8652 16.404C8.58551 17.686 7.85895 19.3782 7.81207 21.1829C7.81145 21.2079 7.81583 21.2328 7.82498 21.2561C7.83412 21.2794 7.84783 21.3006 7.8653 21.3185C7.88278 21.3364 7.90366 21.3506 7.92672 21.3604C7.94978 21.3701 7.97455 21.3751 7.99957 21.3751H9.31207C9.41285 21.3751 9.49723 21.2954 9.49957 21.1946C9.5441 19.8352 10.0949 18.5626 11.0629 17.5969C11.5582 17.099 12.1474 16.7042 12.7963 16.4355C13.4452 16.1667 14.141 16.0294 14.8433 16.0313C16.2707 16.0313 17.6136 16.5868 18.6238 17.5969C19.5894 18.5626 20.1402 19.8352 20.1871 21.1946C20.1894 21.2954 20.2738 21.3751 20.3746 21.3751H21.6871C21.7121 21.3751 21.7369 21.3701 21.7599 21.3604C21.783 21.3506 21.8039 21.3364 21.8213 21.3185C21.8388 21.3006 21.8525 21.2794 21.8617 21.2561C21.8708 21.2328 21.8752 21.2079 21.8746 21.1829C21.8277 19.3782 21.1011 17.686 19.8168 16.404ZM14.8433 14.3438C14.0418 14.3438 13.2871 14.0321 12.7222 13.4649C12.4388 13.1837 12.2148 12.8482 12.0638 12.4786C11.9128 12.1089 11.8378 11.7126 11.8433 11.3133C11.8504 10.5446 12.1574 9.80162 12.6941 9.25084C13.2566 8.67428 14.0089 8.35319 14.8129 8.34381C15.6074 8.33678 16.3785 8.64616 16.9457 9.20162C17.5269 9.77116 17.8457 10.5329 17.8457 11.3438C17.8457 12.1454 17.5339 12.8977 16.9668 13.4649C16.6885 13.7445 16.3575 13.9661 15.9931 14.117C15.6286 14.2679 15.2378 14.345 14.8433 14.3438ZM8.97223 11.9626C8.95113 11.7587 8.93941 11.5524 8.93941 11.3438C8.93941 10.9712 8.97457 10.6079 9.0402 10.254C9.0566 10.1696 9.01207 10.0829 8.93473 10.0477C8.61598 9.90475 8.32301 9.70787 8.06988 9.45944C7.77162 9.17024 7.53691 8.82203 7.38074 8.43705C7.22457 8.05207 7.15036 7.63876 7.16285 7.2235C7.18395 6.47116 7.48629 5.75631 8.01363 5.21725C8.59254 4.62428 9.37066 4.30084 10.198 4.31022C10.9457 4.31725 11.6675 4.60553 12.2136 5.11647C12.3988 5.28991 12.5582 5.48209 12.6918 5.68834C12.7386 5.761 12.83 5.79147 12.9097 5.76334C13.3222 5.62037 13.7582 5.51959 14.2058 5.47272C14.3371 5.45866 14.4121 5.31803 14.3535 5.20084C13.5918 3.69381 12.0355 2.65319 10.2355 2.62506C7.63629 2.58522 5.47066 4.71569 5.47066 7.31022C5.47066 8.78209 6.14801 10.0946 7.20973 10.9547C6.46441 11.2993 5.7777 11.7751 5.18238 12.3704C3.89801 13.6524 3.17145 15.3446 3.12457 17.1516C3.12394 17.1766 3.12833 17.2015 3.13747 17.2248C3.14662 17.2481 3.16033 17.2693 3.1778 17.2872C3.19528 17.3052 3.21616 17.3194 3.23922 17.3291C3.26228 17.3388 3.28705 17.3438 3.31207 17.3438H4.62691C4.7277 17.3438 4.81207 17.2641 4.81441 17.1633C4.85895 15.804 5.40973 14.5313 6.3777 13.5657C7.06676 12.8766 7.91051 12.3985 8.8316 12.1665C8.92301 12.143 8.98395 12.0563 8.97223 11.9626Z" fill="#80808F"/>
</svg>
